<svg width="100" height="100" viewBox="0 0 100 100" fill="none" xmlns="http://www.w3.org/2000/svg">
<path d="M99.677 14.8033L52.695 98.6938C52.4744 99.0883 52.1527 99.4172 51.7629 99.6467C51.3731 99.8763 50.9291 99.9982 50.4766 100C50.0241 100.002 49.5792 99.8835 49.1875 99.6571C48.7959 99.4307 48.4716 99.1044 48.2478 98.7116L0.336257 14.8104C0.0953754 14.3894 -0.0202636 13.9086 0.00290924 13.4243C0.026082 12.94 0.187106 12.4723 0.467084 12.0762C0.747062 11.6801 1.13438 11.3719 1.58359 11.1878C2.03279 11.0038 2.52525 10.9515 3.00317 11.0371L50.0352 19.4333C50.3343 19.4871 50.6406 19.4871 50.9397 19.4333L96.9887 11.0514C97.4647 10.9645 97.9557 11.0146 98.4044 11.1958C98.8531 11.3769 99.2409 11.6817 99.5227 12.0746C99.8045 12.4675 99.9686 12.9323 99.9959 13.4148C100.023 13.8973 99.9127 14.3811 99.677 14.8033Z" fill="url(#paint0_linear_371_7)"/>
<path d="M72.4359 0.0277596L37.6731 6.82825C37.3948 6.88251 37.1425 7.02775 36.9561 7.24107C36.7697 7.45438 36.6597 7.72362 36.6435 8.00628L34.5057 44.0756C34.4939 44.2735 34.5285 44.4714 34.6067 44.6536C34.6849 44.8358 34.8046 44.9972 34.9563 45.1251C35.108 45.253 35.2874 45.3438 35.4804 45.3903C35.6734 45.4368 35.8745 45.4377 36.0679 45.3929L45.7453 43.1618C45.9538 43.1137 46.1711 43.1187 46.3771 43.1763C46.5831 43.234 46.7713 43.3425 46.9244 43.4918C47.0775 43.6411 47.1905 43.8264 47.2531 44.0307C47.3157 44.2351 47.3258 44.4518 47.2826 44.6611L44.4083 58.7226C44.3639 58.939 44.3767 59.1633 44.4454 59.3734C44.514 59.5834 44.6362 59.772 44.7998 59.9207C44.9635 60.0694 45.1631 60.173 45.379 60.2215C45.5949 60.2699 45.8197 60.2614 46.0313 60.1969L52.0086 58.3834C52.2206 58.3187 52.4458 58.3101 52.6621 58.3587C52.8784 58.4073 53.0783 58.5112 53.242 58.6604C53.4058 58.8095 53.5279 58.9987 53.5962 59.2093C53.6646 59.4199 53.6768 59.6446 53.6317 59.8613L49.0593 81.9477C48.7733 83.3293 50.6144 84.0825 51.383 82.9009L51.8942 82.1084L80.2257 25.6519C80.3321 25.4391 80.3767 25.2009 80.3546 24.9642C80.3325 24.7275 80.2445 24.5016 80.1006 24.3122C79.9566 24.1228 79.7625 23.9774 79.5401 23.8924C79.3178 23.8074 79.076 23.7862 78.8422 23.8312L68.8788 25.7482C68.6644 25.7892 68.443 25.7746 68.2358 25.7057C68.0286 25.6368 67.8426 25.516 67.6955 25.3548C67.5485 25.1937 67.4453 24.9975 67.3958 24.7851C67.3464 24.5727 67.3523 24.3512 67.4131 24.1418L73.9124 1.6306C73.9736 1.4205 73.9797 1.19818 73.9299 0.985071C73.8801 0.771959 73.7763 0.575229 73.6283 0.413831C73.4803 0.252433 73.2932 0.131803 73.085 0.0635589C72.8768 -0.00468496 72.6545 -0.018243 72.4395 0.02419L72.4359 0.0277596Z" fill="url(#paint1_linear_371_7)"/>
<defs>
<linearGradient id="paint0_linear_371_7" x1="-0.834469" y1="8.03797" x2="57.5254" y2="87.4094" gradientUnits="userSpaceOnUse">
<stop stop-color="#41D1FF"/>
<stop offset="1" stop-color="#BD34FE"/>
</linearGradient>
<linearGradient id="paint1_linear_371_7" x1="47.3325" y1="1.87257" x2="57.8795" y2="74.3279" gradientUnits="userSpaceOnUse">
<stop stop-color="#FFEA83"/>
<stop offset="0.083" stop-color="#FFDD35"/>
<stop offset="1" stop-color="#FFA800"/>
</linearGradient>
</defs>
</svg>
