<svg width="90" height="122" viewBox="0 0 90 122" fill="none" xmlns="http://www.w3.org/2000/svg">
<g clip-path="url(#clip0_514_4)">
<path d="M29.023 94.3113C29.023 94.3113 24.383 97.0175 32.3252 97.9332C41.9471 99.034 46.8644 98.8764 57.4679 96.8634C57.4679 96.8634 60.2558 98.6165 64.1486 100.135C40.3791 110.353 10.3529 99.5432 29.023 94.3113ZM26.1183 80.978C26.1183 80.978 20.9142 84.8418 28.8623 85.6662C39.1406 86.7297 47.2574 86.8167 61.3031 84.1042C61.3031 84.1042 63.2458 86.0795 66.3005 87.1598C37.5614 95.5884 5.55124 87.8245 26.1183 80.978Z" fill="#5382A1"/>
<path d="M50.6047 58.3608C56.4617 65.1236 49.0659 71.2095 49.0659 71.2095C49.0659 71.2095 63.9374 63.5098 57.1076 53.8676C50.7288 44.8762 45.8368 40.4081 72.319 25.0043C72.319 25.0043 30.7509 35.417 50.6047 58.3608Z" fill="#E76F00"/>
<path d="M82.042 104.173C82.042 104.173 85.4757 107.011 78.2602 109.206C64.5401 113.375 21.1552 114.633 9.10296 109.372C4.77066 107.482 12.8953 104.859 15.4508 104.308C18.116 103.728 19.6393 103.836 19.6393 103.836C14.8211 100.432 -11.5032 110.521 6.26796 113.41C54.7319 121.292 94.6128 109.86 82.042 104.173ZM31.2539 67.1635C31.2539 67.1635 9.18593 72.4207 23.4393 74.3294C29.4574 75.1375 41.4544 74.9549 52.6296 74.0156C61.7625 73.2434 70.933 71.6002 70.933 71.6002C70.933 71.6002 67.7126 72.9835 65.3828 74.579C42.9728 80.4904 -0.319265 77.7404 12.144 71.6937C22.6842 66.5838 31.2539 67.1635 31.2539 67.1635ZM70.8419 89.3569C93.6232 77.4841 83.09 66.0746 75.7381 67.612C73.936 67.9878 73.1327 68.3137 73.1327 68.3137C73.1327 68.3137 73.8017 67.2629 75.0793 66.808C89.6234 61.6795 100.809 81.9336 70.3842 89.9553C70.3842 89.9556 70.7368 89.6397 70.8419 89.3569Z" fill="#5382A1"/>
<path d="M57.1076 0.130785C57.1076 0.130785 69.7241 12.7892 45.1414 32.2531C25.429 47.867 40.6464 56.7695 45.1334 66.941C33.6267 56.5286 25.1822 47.3624 30.8476 38.8316C39.1624 26.3082 62.1978 20.2372 57.1076 0.130785Z" fill="#E76F00"/>
<path d="M33.4926 121.529C55.3595 122.933 88.9382 120.75 89.7335 110.373C89.7335 110.373 88.2049 114.307 71.6618 117.431C52.998 120.954 29.9791 120.543 16.3262 118.285C16.3265 118.285 19.1207 120.605 33.4926 121.529Z" fill="#5382A1"/>
</g>
<defs>
<clipPath id="clip0_514_4">
<rect width="90" height="122" fill="white"/>
</clipPath>
</defs>
</svg>
