<svg width="37" height="44" viewBox="0 0 37 44" fill="none" xmlns="http://www.w3.org/2000/svg">
<path d="M13.45 12.9L13.5666 15.5833L11.7 19.0833L8.78328 24.8L8.19995 29.5833L10.3 36.35L15.0833 39.0333H22.3166L29.0833 33.9L32.1166 25.85L25.1166 17.3333L23.1333 12.55L13.45 12.9Z" fill="#ECEFF1"/>
<path d="M30.0167 19.55C28.15 16.8667 26.6334 15.2333 25.8167 11.85C25.0001 8.46667 26.05 9.4 25.35 6.48333C25 4.96666 24.4167 3.91667 23.8334 3.1C23.1334 2.28333 22.3167 1.81667 21.85 1.7C20.8 1.11667 18.3501 0.183332 15.3167 1.81666C12.1667 3.45 12.5167 6.95 13.1001 14.0667C13.1001 14.5333 12.9834 15.1167 12.7501 15.5833C12.2834 16.6333 11.4667 17.5667 10.7667 18.3833C9.95005 19.55 9.13338 20.7167 8.55005 22C7.15005 24.6833 5.86672 28.0667 6.21672 29.35C6.80005 29.2333 14.1501 40.4333 14.1501 40.6667C14.6167 40.55 16.6 40.55 18.35 40.55C20.8 40.4333 22.2 40.3167 24.1834 40.7833C24.1834 40.4333 24.0667 40.0833 24.0667 39.7333C24.0667 39.0333 24.1834 38.45 24.3001 37.6333C24.4167 37.05 24.5334 36.4667 24.6501 35.7667C23.4834 36.8167 21.3834 37.9833 19.4001 38.3333C17.6501 38.6833 14.7334 38.1 13.3334 36.35C13.4501 36.35 13.6834 36.35 13.8001 36.2333C14.1501 36.1167 14.5001 36 14.6167 35.7667C14.9667 35.1833 14.7334 34.6 14.5001 34.25C14.2667 33.9 12.5167 32.6167 11.7001 31.9167C10.8834 31.2167 10.4167 30.8667 9.95005 30.4L9.01672 29.4667C8.78338 29.2333 8.66672 29 8.55005 28.8833C8.31672 28.3 8.20005 27.6 8.31672 26.6667C8.43338 25.3833 8.90005 24.3333 9.48339 23.1667C9.71672 22.7 10.3001 21.7667 10.3001 21.7667C10.3001 21.7667 8.31672 26.6667 9.36672 28.1833C9.36672 28.1833 9.48339 26.6667 9.95005 25.15C10.3001 24.1 10.8834 22.5833 11.5834 21.7667C12.2834 20.95 14.0334 17.9167 14.1501 16.05C14.1501 15.2333 14.2667 14.4167 14.2667 13.8333C13.8001 13.3667 21.9667 12.2 22.4334 13.4833C22.55 13.95 24.1834 18.15 25.1167 20.3667C25.5834 21.4167 26.1667 22.35 26.5167 23.5167C26.8667 24.8 27.1 26.55 27.1 28.3C27.1 28.65 27.1001 29.2333 26.9834 29.8167C27.2167 29.8167 31.7667 24.9167 26.4001 20.8333C26.4001 20.8333 29.6667 22.35 29.7834 25.3833C29.9 27.8333 28.85 29.8167 28.6167 30.1667C28.7334 30.1667 31.0667 31.2167 31.1834 31.2167C31.65 31.2167 32.5834 30.8667 32.5834 30.8667C32.7001 30.5167 33.0501 29.5833 33.0501 29.2333C33.8667 26.55 31.8834 22.2333 30.0167 19.55Z" fill="#263238"/>
<path d="M15.2 11.85C16.0376 11.85 16.7167 10.8053 16.7167 9.51668C16.7167 8.22802 16.0376 7.18335 15.2 7.18335C14.3624 7.18335 13.6833 8.22802 13.6833 9.51668C13.6833 10.8053 14.3624 11.85 15.2 11.85Z" fill="#ECEFF1"/>
<path d="M20.4501 12.0833C21.5455 12.0833 22.4335 10.882 22.4335 9.40001C22.4335 7.91804 21.5455 6.71667 20.4501 6.71667C19.3548 6.71667 18.4668 7.91804 18.4668 9.40001C18.4668 10.882 19.3548 12.0833 20.4501 12.0833Z" fill="#ECEFF1"/>
<path d="M16.0479 9.67612C15.9509 8.90903 15.5096 8.33303 15.0621 8.38959C14.6146 8.44615 14.3305 9.11385 14.4275 9.88095C14.5244 10.648 14.9658 11.224 15.4132 11.1675C15.8607 11.1109 16.1449 10.4432 16.0479 9.67612Z" fill="#212121"/>
<path d="M20.3332 11.3834C20.9775 11.3834 21.4998 10.7043 21.4998 9.8667C21.4998 9.02907 20.9775 8.35004 20.3332 8.35004C19.6888 8.35004 19.1665 9.02907 19.1665 9.8667C19.1665 10.7043 19.6888 11.3834 20.3332 11.3834Z" fill="#212121"/>
<path d="M35.85 35.5333C35.3833 35.3 34.5666 34.95 33.8666 33.9C33.5166 33.3166 33.6333 31.6833 33.05 30.9833C32.7 30.5166 32.2333 30.75 32.1166 30.75C31.0666 30.9833 28.6166 32.6166 26.9833 30.75C26.75 30.5166 26.4 30.1666 25.8166 30.1666C25.2333 30.1666 25 30.4 24.7666 30.8666C24.5333 31.3333 24.5333 31.6833 24.5333 32.85C24.5333 33.7833 24.5333 34.8333 24.4166 35.65C24.1833 37.6333 23.8333 38.8 23.8333 39.9666C23.8333 41.25 24.1833 42.0666 24.65 42.4166C25 42.7666 25.5833 43 26.8666 43C28.15 43 28.9666 42.5333 29.7833 41.7166C30.3666 41.1333 30.8333 40.9 32.4666 39.7333C33.75 38.9166 35.7333 37.8666 36.0833 37.5166C36.3166 37.2833 36.6666 37.1666 36.6666 36.4666C36.6666 35.8833 36.2 35.65 35.85 35.5333ZM12.4 35.8833C11.2333 34.0166 11.1166 33.6666 10.2999 32.5C9.59995 31.3333 8.08328 29.1166 7.14995 29.1166C6.44995 29.1166 6.09995 29.4666 5.63328 29.9333C5.16662 30.4 4.69995 31.45 3.88328 32.0333C3.18328 32.6166 1.19995 32.5 0.733283 33.2C0.266616 33.9 1.19995 34.95 1.19995 36.7C1.19995 37.4 0.616616 37.8666 0.499949 38.3333C0.383283 38.9166 0.266616 39.2666 0.499949 39.7333C0.966616 40.4333 1.54995 40.6666 5.51662 41.4833C7.61662 41.95 9.59995 43.1166 10.8833 43.2333C12.1666 43.35 14.3833 43.2333 14.3833 40.0833C14.4999 38.2166 13.45 37.75 12.4 35.8833ZM14.6166 14.7666C13.9166 14.3 13.3333 13.8333 13.3333 13.1333C13.3333 12.4333 13.8 12.2 14.5 11.6166C14.6166 11.5 15.8999 10.3333 17.1833 10.3333C18.4666 10.3333 19.9833 11.15 20.5666 11.3833C21.6166 11.6166 22.6666 11.85 22.55 12.6666C22.4333 13.8333 22.3166 14.0666 21.15 14.65C20.3333 14.8833 18.8166 16.1666 17.7666 16.1666C17.2999 16.1666 16.5999 16.1666 16.1333 16.05C15.7833 15.9333 15.2 15.35 14.6166 14.7666Z" fill="#FFC107"/>
<path d="M14.3833 13.8334C14.6166 14.0667 14.9666 14.3 15.3166 14.4167C15.55 14.5334 15.9 14.65 15.9 14.65H16.95C17.5333 14.65 18.35 14.4167 19.1666 13.95C19.9833 13.6 20.1 13.3667 20.6833 13.1334C21.2666 12.7834 21.85 12.4334 21.6166 12.3167C21.3833 12.2 21.15 12.3167 20.3333 12.7834C19.6333 13.25 19.05 13.4834 18.35 13.8334C18 13.95 17.5333 14.1834 17.1833 14.1834H16.1333C15.7833 14.1834 15.55 14.0667 15.2 13.95C14.9666 13.8334 14.85 13.7167 14.7333 13.7167C14.5 13.6 14.0333 13.1334 13.8 13.0167C13.8 13.0167 13.5666 13.0167 13.6833 13.1334L14.3833 13.8334ZM17.8833 11.2667C18 11.5 18.2333 11.5 18.35 11.6167C18.4666 11.7334 18.5833 11.7334 18.5833 11.7334C18.7 11.6167 18.5833 11.3834 18.4666 11.3834C18.4666 11.15 17.8833 11.15 17.8833 11.2667ZM16.0166 11.5C16.0166 11.6167 16.25 11.7334 16.25 11.6167C16.3666 11.5 16.4833 11.3834 16.6 11.3834C16.8333 11.2667 16.7166 11.15 16.3666 11.15C16.1333 11.2667 16.1333 11.3834 16.0166 11.5Z" fill="#634703"/>
<path d="M27.3334 32.15V32.5C27.5667 32.9667 28.15 33.0833 28.6167 33.0833C29.3167 33.0833 30.0167 32.6167 30.3667 32.15C30.3667 32.0333 30.4834 31.9167 30.6 31.8C30.8334 31.45 30.95 31.2167 31.0667 31.1C31.0667 31.1 30.95 30.9833 30.95 30.8667C30.8334 30.6333 30.4834 30.4 30.0167 30.2833C29.6667 30.1667 29.0834 30.05 28.85 30.05C27.8 29.9333 27.2167 30.2833 26.8667 30.6333C26.8667 30.6333 26.9834 30.6333 26.9834 30.75C27.2167 30.9833 27.3334 31.2167 27.3334 31.5667C27.45 31.8 27.3334 31.9167 27.3334 32.15Z" fill="#455A64"/>
</svg>
