<svg width="188" height="163" viewBox="0 0 188 163" fill="none" xmlns="http://www.w3.org/2000/svg">
<path fill-rule="evenodd" clip-rule="evenodd" d="M158.031 110.671C158.823 110.216 159.482 109.561 159.941 108.771C160.4 107.982 160.643 107.085 160.646 106.171L160.74 76.0304C160.743 75.1169 160.986 74.2201 161.445 73.4304C161.903 72.6404 162.562 71.9851 163.354 71.5304L179.693 62.1454C180.889 61.4589 182.309 61.2749 183.641 61.6337C184.973 61.9925 186.108 62.8648 186.798 64.0594C187.254 64.8507 187.495 65.748 187.495 66.6614V121.457C187.495 122.374 187.253 123.274 186.794 124.067C186.335 124.86 185.675 125.517 184.88 125.973L123.219 161.39C122.431 161.842 121.539 162.08 120.631 162.081C119.723 162.082 118.831 161.846 118.042 161.395L69.651 133.718C68.8542 133.263 68.1919 132.605 67.731 131.811C67.27 131.017 67.0269 130.115 67.026 129.197V101.567C67.026 101.536 67.063 101.515 67.094 101.53C67.1002 101.535 67.1075 101.537 67.1149 101.537C67.1224 101.537 67.1297 101.535 67.1362 101.532C67.1426 101.528 67.1479 101.522 67.1514 101.516C67.1549 101.509 67.1565 101.502 67.156 101.494V101.463C67.156 101.442 67.167 101.421 67.188 101.411L107.042 78.5154C107.078 78.4944 107.062 78.4374 107.021 78.4374C107.01 78.4372 106.999 78.4327 106.992 78.4248C106.984 78.417 106.979 78.4065 106.979 78.3954L107.057 51.3064C107.061 50.3903 106.824 49.4893 106.368 48.6945C105.912 47.8997 105.255 47.2394 104.462 46.7804C103.67 46.3208 102.77 46.0783 101.854 46.0774C100.938 46.0765 100.038 46.3173 99.245 46.7754L69.625 63.8434C68.8343 64.2982 67.9381 64.5375 67.026 64.5375C66.1139 64.5375 65.2177 64.2982 64.427 63.8434L34.713 46.7334C33.9215 46.2773 33.0239 46.0374 32.1103 46.0378C31.1968 46.0383 30.2994 46.2791 29.5084 46.7361C28.7173 47.1931 28.0604 47.8501 27.6036 48.6413C27.1469 49.4324 26.9063 50.3299 26.906 51.2434V100.202C26.907 101.115 26.6681 102.012 26.2132 102.803C25.7584 103.594 25.1037 104.252 24.3146 104.71C23.5255 105.169 22.6298 105.412 21.7172 105.415C20.8047 105.418 19.9073 105.181 19.115 104.728L2.62501 95.3014C1.82626 94.8453 1.16258 94.1858 0.701497 93.3899C0.240411 92.594 -0.00162683 91.6902 8.22944e-06 90.7704L0.146008 5.19742C0.147937 4.28513 0.389471 3.38937 0.846429 2.59978C1.30339 1.81019 1.95974 1.15448 2.74978 0.698297C3.53981 0.242116 4.43582 0.00146487 5.3481 0.000432849C6.26039 -0.000599174 7.15694 0.238026 7.94801 0.692419L64.432 33.1354C65.2213 33.5888 66.1157 33.8274 67.026 33.8274C67.9363 33.8274 68.8307 33.5888 69.62 33.1354L126.089 0.692419C127.286 0.00453156 128.707 -0.179847 130.04 0.17983C131.372 0.539508 132.508 1.41379 133.196 2.61042C133.652 3.40142 133.891 4.29942 133.891 5.21342V90.8064C133.891 91.7221 133.65 92.6217 133.192 93.4146C132.734 94.2074 132.075 94.8654 131.281 95.3224L101.708 112.353C100.914 112.812 100.255 113.472 99.7973 114.266C99.3396 115.061 99.0994 115.962 99.101 116.878C99.1028 117.795 99.3468 118.695 99.8083 119.488C100.27 120.28 100.932 120.936 101.729 121.39L118.042 130.676C118.83 131.126 119.722 131.361 120.629 131.36C121.537 131.358 122.428 131.119 123.214 130.666L158.031 110.671ZM161.453 33.8904C161.454 34.8114 161.7 35.7155 162.164 36.5109C162.628 37.3062 163.295 37.9644 164.096 38.4184C164.898 38.8723 165.805 39.1054 166.726 39.094C167.647 39.0826 168.549 38.827 169.339 38.3534L184.964 28.9784C185.735 28.516 186.373 27.862 186.817 27.0799C187.26 26.2979 187.494 25.4144 187.495 24.5154V5.41042C187.493 4.72189 187.355 4.04056 187.088 3.40577C186.821 2.77097 186.432 2.19527 185.941 1.71191C185.451 1.22854 184.87 0.847083 184.231 0.589544C183.593 0.332006 182.909 0.20349 182.221 0.211416C181.3 0.223271 180.399 0.478951 179.609 0.952417L163.984 10.3274C163.212 10.7894 162.574 11.4435 162.13 12.2258C161.687 13.0082 161.453 13.8921 161.453 14.7914V33.8954V33.8904Z" fill="#007FFF"/>
</svg>
