<svg width="100" height="100" viewBox="0 0 100 100" fill="none" xmlns="http://www.w3.org/2000/svg">
<g clip-path="url(#clip0_514_23)">
<path d="M74.2156 93.7656C73.8438 93.9625 73.875 94.025 74.2312 93.8438C74.341 93.7989 74.4417 93.7343 74.5281 93.6531C74.5281 93.5875 74.5281 93.5875 74.2156 93.7656ZM74.9656 93.3594C74.7875 93.5063 74.7875 93.5063 75 93.4094C75.0785 93.3726 75.1503 93.323 75.2125 93.2625C75.2125 93.1781 75.1625 93.1969 74.9656 93.3594ZM75.4531 93.0656C75.275 93.2125 75.275 93.2125 75.4875 93.1156C75.5663 93.0781 75.6382 93.0273 75.7 92.9656C75.7 92.8875 75.65 92.9031 75.4531 93.0656ZM75.9469 92.775C75.7687 92.9219 75.7688 92.9219 75.975 92.8219C76.0906 92.7594 76.1875 92.6938 76.1875 92.675C76.1875 92.5969 76.1375 92.6125 75.9469 92.775ZM76.6125 92.3344C76.2719 92.5625 76.1531 92.7094 76.4656 92.5469C76.675 92.4188 77.0312 92.1375 76.9687 92.1375C76.8344 92.1875 76.7219 92.2719 76.6094 92.3344H76.6125ZM46.7281 0.0343824C46.5 0.0500074 45.8156 0.112507 45.2156 0.162507C31.0031 1.45001 17.7063 9.10001 9.27813 20.8844C4.62051 27.3477 1.59299 34.8403 0.453125 42.725C0.05 45.475 0 46.2875 0 50.0156C0 53.7406 0.05 54.5406 0.453125 57.2906C3.175 76.075 16.5375 91.8438 34.65 97.6875C37.9094 98.7281 41.325 99.4469 45.2156 99.8875C46.7281 100.05 53.2688 100.05 54.7813 99.8875C61.5063 99.1375 67.1844 97.4781 72.8031 94.6125C73.6656 94.175 73.8281 94.0594 73.7125 93.9625C70.9715 90.3393 68.2538 86.6986 65.5594 83.0406L57.5688 72.25L47.5594 57.4219C44.2299 52.4571 40.8663 47.5153 37.4687 42.5969C37.4344 42.5969 37.3906 49.1875 37.3719 57.225C37.3375 71.3031 37.3375 71.875 37.1594 72.2C36.9886 72.5926 36.6825 72.9109 36.2969 73.0969C35.9875 73.2438 35.7094 73.275 34.2313 73.275H32.5406L32.1 73C31.824 72.8229 31.5998 72.5761 31.45 72.2844L31.2375 71.8438L31.2531 52.2469L31.2875 32.65L31.5969 32.2594C31.7945 32.0192 32.0377 31.8206 32.3125 31.675C32.7219 31.4781 32.8844 31.4469 34.575 31.4469C36.5594 31.4469 36.8875 31.525 37.4094 32.0969C41.4642 38.1277 45.484 44.182 49.4687 50.2594C55.9656 60.1094 64.8344 73.55 69.1938 80.1438L77.1219 92.1406L77.5125 91.8813C81.3226 89.3493 84.7754 86.317 87.7781 82.8656C94.0767 75.6565 98.1638 66.7847 99.55 57.3125C99.9531 54.5625 100.003 53.7469 100.003 50.0219C100.003 46.2938 99.9531 45.4969 99.55 42.7469C96.8281 23.9625 83.4656 8.19376 65.3531 2.34688C61.9681 1.27476 58.4839 0.545063 54.9531 0.168757C54.0062 0.0718824 47.5438 -0.0437426 46.7313 0.0406324L46.7281 0.0343824ZM67.1875 30.275C67.42 30.3892 67.6274 30.5486 67.7975 30.7439C67.9676 30.9392 68.097 31.1665 68.1781 31.4125C68.2625 31.675 68.2781 37.1094 68.2625 49.35L68.2281 66.925L65.1375 62.175L62.0281 57.4219V44.6625C62.0281 36.3906 62.0625 31.7531 62.1063 31.525C62.2592 31.0019 62.6101 30.5591 63.0844 30.2906C63.4719 30.0938 63.6219 30.0781 65.1688 30.0781C66.6156 30.0781 66.8625 30.0938 67.1875 30.275Z" fill="black"/>
</g>
<defs>
<clipPath id="clip0_514_23">
<rect width="100" height="100" fill="white"/>
</clipPath>
</defs>
</svg>
