<svg width="100" height="100" viewBox="0 0 100 100" fill="none" xmlns="http://www.w3.org/2000/svg">
<path d="M92.2095 58.6656C91.9456 57.8976 91.4699 57.2199 90.8373 56.7106C90.2048 56.2013 89.4411 55.8813 88.6345 55.7875C87.6814 55.6729 86.7157 55.7269 85.7813 55.9469C84.3362 56.2661 82.8661 56.4595 81.3876 56.525C85.3414 49.8544 88.3613 42.6729 90.3626 35.1813C93.3407 23.6531 91.7501 18.4031 89.8907 16.025C87.4215 12.9011 84.2614 10.3925 80.6588 8.69636C77.0561 7.00024 73.1092 6.16285 69.1282 6.25C65.4762 6.21579 61.8395 6.72554 58.3376 7.7625C56.2518 7.40491 54.1411 7.21265 52.0251 7.1875C48.1789 7.04147 44.3692 7.98036 41.0313 9.89688C38.5 9.041 35.9042 8.38892 33.2688 7.94688C30.1967 7.20989 27.0095 7.08557 23.8893 7.58103C20.7691 8.07648 17.7772 9.182 15.0845 10.8344C9.66572 14.6594 7.15322 21.3094 7.61884 30.6C8.45253 37.531 9.92334 44.3703 12.0126 51.0313C13.2158 55.1919 14.7996 59.2329 16.7438 63.1031C18.1797 66.6337 20.9093 69.4829 24.3751 71.0688C25.6455 71.4873 27.0047 71.5585 28.3119 71.275C29.6191 70.9915 30.8266 70.3635 31.8095 69.4563C32.2555 69.9844 32.783 70.438 33.372 70.8C34.2848 71.3665 35.28 71.7882 36.322 72.05C39.7327 73 43.3634 72.78 46.6345 71.425C46.6532 71.9594 46.6688 72.4719 46.6782 72.9156C46.697 73.6313 46.7188 74.3344 46.7438 74.9938C46.7067 78.4795 47.1709 81.9525 48.122 85.3063C48.172 85.4406 48.2376 85.6406 48.3063 85.8563C48.8553 87.9089 49.9215 89.7864 51.4032 91.3094C53.1797 92.9406 55.5238 93.8121 57.9345 93.7375C58.9613 93.731 59.9846 93.6168 60.9876 93.3969C62.889 93.1582 64.7233 92.541 66.3822 91.5819C68.0412 90.6228 69.4913 89.3411 70.647 87.8125C73.1813 84.2031 74.4157 78.7688 74.6376 70.2031L74.7188 69.5094L74.772 69.0563L75.3688 69.1094H75.522C78.9013 69.2525 82.2721 68.6685 85.4063 67.3969C87.3782 66.4813 93.7001 63.1438 92.2095 58.6469" fill="black"/>
<path d="M86.5281 59.5406C76.6437 61.5781 75.9656 58.2344 75.9656 58.2344C86.4 42.75 90.7625 23.0938 86.9968 18.2844C76.7281 5.15939 58.9499 11.3688 58.6531 11.5281L58.5562 11.5469C56.3848 11.1111 54.1771 10.8809 51.9625 10.8594C48.2277 10.672 44.5422 11.7754 41.525 13.9844C41.525 13.9844 9.81245 0.918763 11.2875 30.4156C11.6 36.6906 20.2812 77.8969 30.6343 65.45C34.4187 60.9 38.075 57.05 38.075 57.05C39.9164 58.2929 42.1319 58.8583 44.3437 58.65L44.5218 58.5C44.4695 59.0913 44.4937 59.6868 44.5937 60.2719C41.925 63.2531 42.7187 63.775 37.3781 64.8719C31.9843 65.9844 35.1531 67.9625 37.2218 68.4813C39.4198 69.1923 41.7863 69.1908 43.9834 68.4769C46.1804 67.7631 48.0959 66.3734 49.4562 64.5063L49.3 65.1313C50.3437 65.9688 51.0781 70.575 50.9562 74.7531C50.6154 77.8606 50.8269 81.0038 51.5812 84.0375C52.4062 86.2781 53.225 91.3156 60.2343 89.8156C62.7268 89.5694 65.0451 88.4264 66.7581 86.599C68.471 84.7717 69.462 82.3845 69.5468 79.8813C69.8593 76.025 70.5249 76.5938 70.5656 73.1469L71.1093 71.5156C71.7343 66.2875 71.2093 64.6 74.8156 65.3844L75.6937 65.4625C78.4838 65.5797 81.2675 65.1113 83.8656 64.0875C88.2593 62.05 90.8625 58.6438 86.5312 59.5406" fill="#336791"/>
<path d="M43.3812 33.2219C42.6643 33.071 41.9171 33.1819 41.2749 33.5344C41.1912 33.5946 41.1205 33.671 41.0668 33.759C41.0131 33.847 40.9776 33.9449 40.9624 34.0469C40.9624 34.4073 41.0922 34.7556 41.328 35.0281C41.7473 35.604 42.3735 35.9949 43.0749 36.1187C43.1681 36.1316 43.2621 36.1379 43.3562 36.1375C43.8204 36.1435 44.2753 36.0068 44.6593 35.7458C45.0433 35.4848 45.3378 35.1121 45.503 34.6781C45.6124 33.9031 44.4843 33.3844 43.3905 33.2313M72.8968 33.2563C72.8124 32.6469 71.728 32.475 70.7093 32.6313C69.6905 32.7875 68.6874 33.2375 68.7718 33.8469C68.9307 34.2292 69.1998 34.5555 69.5449 34.7842C69.8899 35.013 70.2953 35.1338 70.7093 35.1312C70.7961 35.1311 70.8827 35.1248 70.9687 35.1125C71.5106 35.0173 72.006 34.746 72.378 34.3406C72.6891 34.0674 72.8791 33.6819 72.9062 33.2688" fill="white"/>
<path d="M89.8156 59.3094C89.4375 58.1688 88.225 57.8031 86.2094 58.2188C80.225 59.4688 78.0844 58.5969 77.3781 58.0813C82.117 50.8066 85.6746 42.8277 87.9187 34.4406C88.8271 31.1231 89.3513 27.7122 89.4812 24.275C89.7221 21.8708 89.163 19.4542 87.8906 17.4C85.6384 14.5655 82.7586 12.2927 79.4783 10.7607C76.198 9.22872 72.6067 8.47944 68.9875 8.5719C65.2698 8.51372 61.5699 9.09619 58.05 10.2938C56.0368 9.79701 53.9734 9.53175 51.9 9.50315C48.1697 9.33923 44.4825 10.3551 41.3625 12.4063C38.5852 11.3909 35.7183 10.6396 32.8 10.1625C27.2213 8.81249 21.3353 9.71639 16.4187 12.6781C11.7312 16.0031 9.54374 21.9469 9.97812 30.3438C10.799 37.0735 12.2352 43.7138 14.2687 50.1813C17.6125 61.1344 21.2469 67.3375 25.0719 68.6188C25.5663 68.7853 26.0845 68.8708 26.6062 68.8719C27.5772 68.8118 28.5217 68.5312 29.3681 68.0514C30.2144 67.5717 30.9403 66.9054 31.4906 66.1031C33.6614 63.499 35.9062 60.9594 38.225 58.4844C39.7156 59.2911 41.3745 59.7374 43.0687 59.7875V59.9188C42.7771 60.2646 42.4927 60.6167 42.2156 60.975C41.0437 62.4594 40.8031 62.7688 37.0344 63.5469C35.9625 63.7688 33.1156 64.3563 33.075 66.3594C33.0312 68.5469 36.4406 69.4563 36.825 69.5531C38.1004 69.8811 39.4112 70.0512 40.7281 70.0594C43.6082 70.1125 46.4009 69.0692 48.5406 67.1406C48.2211 73.0878 48.6208 79.0518 49.7312 84.9031C50.2443 86.7764 51.3548 88.431 52.8941 89.6154C54.4333 90.7999 56.3172 91.4496 58.2594 91.4656C59.2229 91.4627 60.1834 91.3579 61.125 91.1531C63.6958 90.9311 66.1026 89.7975 67.9111 87.9569C69.7196 86.1164 70.8107 83.69 70.9875 81.1156C71.5406 77.9094 72.4906 70.2563 72.9375 66.15C74.0668 66.4604 75.2353 66.6046 76.4062 66.5781C79.103 66.5976 81.7775 66.088 84.2781 65.0781C86.5031 64.0438 90.5281 61.5125 89.7875 59.3094H89.8156ZM75.1594 31.5625C75.1193 32.7227 74.9982 33.8786 74.7969 35.0219C74.5645 36.3653 74.4184 37.7223 74.3594 39.0844C74.3488 40.6213 74.4533 42.1568 74.6719 43.6781C75.3469 46.7919 75.0982 50.035 73.9562 53.0094C73.7137 52.5792 73.4977 52.1346 73.3094 51.6781C73.1281 51.2375 72.7312 50.5281 72.1875 49.55C70.0625 45.7375 65.0812 36.8063 67.6312 33.1625C68.3906 32.0781 70.3187 30.975 75.1562 31.5625H75.1594ZM69.2937 11.0344C72.4925 10.969 75.6628 11.6467 78.5552 13.0143C81.4476 14.3819 83.9832 16.402 85.9625 18.9156C89.0094 22.8063 85.65 40.5156 75.9469 55.7906L75.6531 55.4188L75.5312 55.2656C77.459 51.623 78.0198 47.4108 77.1125 43.3906C76.9036 41.992 76.7991 40.5798 76.8 39.1656C76.8566 37.902 76.9934 36.6432 77.2094 35.3969C77.4905 33.8581 77.6193 32.2953 77.5937 30.7313C77.6446 30.5164 77.6584 30.2945 77.6344 30.075C76.5989 25.8904 74.5465 22.0262 71.6594 18.825C69.0651 15.768 65.8204 13.3294 62.1625 11.6875C64.505 11.1991 66.895 10.9747 69.2875 11.0188L69.2937 11.0344ZM29.6219 64.5438C27.6625 66.9 26.3062 66.45 25.8719 66.3C22.9719 65.3313 19.6031 59.2 16.6375 49.475C14.6684 43.1977 13.2669 36.7562 12.45 30.2281C12.075 22.7281 13.8937 17.4969 17.8562 14.6844C24.3031 10.1125 34.9062 12.85 39.1656 14.2375C39.1031 14.2969 39.0406 14.3531 38.9812 14.4156C31.9906 21.475 32.1562 33.5375 32.175 34.275C32.175 34.5594 32.1969 34.9625 32.2312 35.525C32.4875 38.8854 32.4027 42.263 31.9781 45.6063C31.6876 47.5205 31.8369 49.4758 32.4146 51.3238C32.9923 53.1718 33.9833 54.864 35.3125 56.2719C35.5896 56.5594 35.8792 56.8323 36.1812 57.0906C33.9233 59.5121 31.7349 61.9975 29.6187 64.5438H29.6219ZM37.0906 54.575C36.0129 53.4356 35.2093 52.0654 34.7409 50.5687C34.2724 49.0719 34.1516 47.488 34.3875 45.9375C34.8354 42.4339 34.9265 38.8939 34.6594 35.3719C34.6428 35.1189 34.6282 34.8658 34.6156 34.6125C37.2334 32.6396 40.482 31.6916 43.75 31.9469C44.5019 32.1173 45.1821 32.5176 45.6962 33.0921C46.2102 33.6667 46.5327 34.387 46.6187 35.1531C48.6375 44.4938 46.8844 48.3844 45.4781 51.5125C45.1875 52.1563 44.9125 52.7625 44.6812 53.3875L44.5 53.875C44.0509 55.0073 43.6669 56.1644 43.35 57.3406C42.1751 57.3239 41.0158 57.0697 39.9417 56.5934C38.8677 56.117 37.901 55.4284 37.1 54.5688L37.0906 54.575ZM37.4437 67.1688C36.8639 67.0261 36.3117 66.7885 35.8094 66.4656C36.3679 66.227 36.9519 66.053 37.55 65.9469C41.9812 65.0344 42.6656 64.3844 44.1625 62.4938C44.5062 62.0594 44.8937 61.5563 45.4312 60.9656C46.2312 60.0688 46.6 60.2219 47.2625 60.4969C47.5767 60.6675 47.8522 60.9014 48.0717 61.1838C48.2911 61.4661 48.4497 61.7909 48.5375 62.1375C48.6248 62.3892 48.6561 62.6569 48.6291 62.922C48.6021 63.187 48.5175 63.443 48.3812 63.6719C47.1698 65.3447 45.4555 66.5865 43.4884 67.2162C41.5213 67.8458 39.4045 67.8303 37.4469 67.1719L37.4437 67.1688ZM60.6437 88.75C59.7667 89.0549 58.8353 89.1715 57.9102 89.092C56.9851 89.0125 56.0871 88.7388 55.275 88.2888C54.4628 87.8388 53.7547 87.2225 53.1968 86.4803C52.639 85.7381 52.2439 84.8865 52.0375 83.9813C50.937 76.8991 50.6226 69.7169 51.1 62.5656C51.1031 62.4345 51.0852 62.3036 51.0469 62.1781C51.0141 61.9353 50.964 61.6951 50.8969 61.4594C50.7117 60.7565 50.3745 60.1027 49.9091 59.5444C49.4436 58.9861 48.8613 58.5367 48.2031 58.2281C47.4359 57.8477 46.5626 57.7376 45.725 57.9156C46.0211 56.8319 46.3779 55.7656 46.7937 54.7219L46.975 54.2313C47.1812 53.6781 47.4375 53.1063 47.7094 52.5C49.1812 49.2281 51.2 44.7438 49.0094 34.6188C48.8707 33.7575 48.5571 32.9338 48.0879 32.1984C47.6187 31.4629 47.0039 30.8314 46.2812 30.3428C45.5586 29.8541 44.7436 29.5186 43.8863 29.357C43.0291 29.1954 42.1478 29.2111 41.2969 29.4031C39.2386 29.6701 37.2429 30.2952 35.4 31.25C35.1562 31.375 34.9312 31.4938 34.725 31.6094C34.9613 25.9312 37.0686 20.4904 40.7187 16.1344C42.1848 14.6997 43.9346 13.5871 45.8557 12.8682C47.7769 12.1492 49.8272 11.8397 51.875 11.9594C55.3345 11.9894 58.7453 12.7782 61.8668 14.2701C64.9883 15.762 67.7443 17.9206 69.9406 20.5938C72.084 23.0967 73.7587 25.9655 74.8844 29.0625C70.3125 28.5969 67.2031 29.5 65.6281 31.7531C62.1906 36.6531 67.5031 46.1656 70.0531 50.7375C70.5219 51.575 70.925 52.3 71.05 52.6125C71.7234 54.1846 72.6305 55.6459 73.7406 56.9469C73.9812 57.2594 74.2156 57.5375 74.3906 57.7938C73.0062 58.1938 70.5187 59.1156 70.7469 63.7313C70.5656 66.0438 69.2656 76.8719 68.6031 80.7C67.7312 85.7531 65.8719 87.6375 60.6406 88.7594L60.6437 88.75ZM83.275 62.85C81.3512 63.6132 79.3093 64.0362 77.2406 64.1C75.8642 64.3027 74.4586 64.1222 73.1781 63.5781C73.0375 60.7063 74.1156 60.4063 75.2406 60.0875C75.4187 60.0375 75.5906 59.9875 75.7594 59.9313C75.8697 60.0203 75.9844 60.1037 76.1031 60.1813C78.1 61.5 81.6656 61.6406 86.6969 60.6031H86.7531C85.7131 61.5279 84.5368 62.2868 83.2656 62.8531L83.275 62.85Z" fill="white"/>
</svg>
