<svg width="110" height="97" viewBox="0 0 110 97" fill="none" xmlns="http://www.w3.org/2000/svg">
<path d="M90.4419 31.4397C89.2713 31.0416 88.0907 30.6728 86.9013 30.3337C87.1011 29.5245 87.285 28.7251 87.4483 27.9398C90.1287 15.0439 88.3764 4.65473 82.3913 1.23411C76.6528 -2.04512 67.268 1.37422 57.79 9.54973C56.8559 10.3569 55.9425 11.1873 55.0507 12.0402C54.4537 11.4731 53.8462 10.9169 53.2284 10.3721C43.2949 1.6306 33.3382 -2.05364 27.3595 1.37678C21.6262 4.66623 19.9285 14.4328 22.3416 26.6545C22.5817 27.865 22.8528 29.0692 23.1546 30.2659C21.7452 30.6629 20.3852 31.0853 19.0837 31.5351C7.43746 35.5596 0 41.8663 0 48.4082C0 55.1647 7.98445 61.9416 20.1145 66.0509C21.0979 66.3827 22.0895 66.6901 23.0884 66.9729C22.764 68.2619 22.476 69.5596 22.2247 70.8645C19.9242 82.8742 21.7207 92.4099 27.4386 95.6785C33.3442 99.054 43.2562 95.5848 52.9074 87.2228C53.69 86.543 54.4554 85.8439 55.2028 85.1262C56.1686 86.0497 57.1601 86.9464 58.1762 87.8152C67.5254 95.7884 76.7585 99.008 82.4708 95.7305C88.3708 92.3452 90.2885 82.1012 87.7989 69.638C87.6028 68.6616 87.3829 67.69 87.1393 66.7242C87.8354 66.5198 88.5186 66.3094 89.1847 66.0905C101.795 61.9497 110 55.255 110 48.4082C110 41.8425 102.322 35.4931 90.4419 31.4397ZM87.707 61.6699C87.1054 61.8671 86.4884 62.0575 85.8593 62.2427C84.4671 57.8745 82.5885 53.2299 80.2893 48.4308C82.4832 43.7461 84.2896 39.1608 85.6427 34.8211C86.7681 35.1439 87.8599 35.4842 88.9127 35.8432C99.092 39.3166 105.301 44.4514 105.301 48.4082C105.301 52.6226 98.5952 58.0938 87.707 61.6699ZM83.1892 70.5426C84.2901 76.0534 84.4469 81.0361 83.7177 84.9316C83.0629 88.4318 81.7455 90.7652 80.1161 91.7C76.6498 93.6888 69.2364 91.1038 61.2412 84.2847C60.296 83.4769 59.3737 82.6433 58.4753 81.7848C61.5751 78.4251 64.6727 74.5194 67.696 70.1814C73.0138 69.7138 78.0377 68.9489 82.5937 67.9051C82.8131 68.7795 83.0117 69.6589 83.1892 70.5426ZM37.5014 91.3563C34.1146 92.5415 31.417 92.5756 29.7864 91.6438C26.3166 89.6605 24.8742 82.0037 26.8417 71.7333C27.0756 70.5197 27.3434 69.3127 27.6448 68.1138C32.1505 69.1018 37.1379 69.8122 42.4682 70.2406C45.5121 74.4853 48.6991 78.3867 51.911 81.8031C51.2284 82.4577 50.5297 83.0956 49.8154 83.7161C45.5473 87.4136 41.2706 90.037 37.5014 91.3563ZM21.6348 61.6439C16.271 59.8267 11.8413 57.4653 8.80516 54.8883C6.07664 52.5728 4.69949 50.2735 4.69949 48.4082C4.69949 44.4382 10.6709 39.3745 20.6306 35.9331C21.8393 35.5157 23.1043 35.1218 24.417 34.7521C25.7937 39.1897 27.5993 43.8296 29.7782 48.5215C27.5709 53.2827 25.7396 57.9967 24.3495 62.4867C23.4378 62.2279 22.5326 61.9469 21.6348 61.6439ZM26.9534 25.7598C24.8862 15.2888 26.2591 7.39012 29.7142 5.40768C33.394 3.29619 41.5314 6.3067 50.1084 13.8549C50.6677 14.3482 51.218 14.8515 51.7589 15.3646C48.5629 18.7661 45.4051 22.6385 42.3882 26.8581C37.2148 27.3334 32.2627 28.0965 27.7097 29.1191C27.4292 28.0059 27.177 26.8855 26.9534 25.7598ZM74.4025 37.3725C73.3271 35.5314 72.2118 33.7135 71.0574 31.92C74.5671 32.36 77.9298 32.9438 81.0876 33.6576C80.1397 36.6694 78.9581 39.8179 77.5672 43.046C76.5505 41.1341 75.4954 39.2426 74.4025 37.3725ZM55.0529 18.6932C57.2202 21.0206 59.391 23.6189 61.5261 26.4382C57.1948 26.2355 52.8564 26.2346 48.525 26.4356C50.6623 23.6423 52.8516 21.0475 55.0529 18.6932ZM35.579 37.4044C34.4998 39.2595 33.4644 41.1392 32.4736 43.0422C31.1055 39.8255 29.9346 36.6626 28.9786 33.6082C32.117 32.9123 35.4638 32.3434 38.9512 31.9115C37.7839 33.7159 36.6595 35.5477 35.579 37.4044ZM39.0513 65.2362C35.4484 64.8376 32.0513 64.298 28.9137 63.6208C29.8848 60.512 31.0814 57.2817 32.4792 53.9961C33.4739 55.9004 34.5136 57.7813 35.5975 59.6372C36.7121 61.5451 37.8662 63.4139 39.0513 65.2362ZM55.1826 78.4511C52.9551 76.0696 50.7336 73.4347 48.5641 70.6009C50.6705 70.6827 52.8176 70.7244 55 70.7244C57.2421 70.7244 59.4584 70.6746 61.64 70.5783C59.498 73.4632 57.3354 76.1019 55.1826 78.4511ZM77.6114 53.8283C79.0818 57.1501 80.3211 60.3633 81.305 63.419C78.1159 64.1404 74.6724 64.7213 71.0441 65.1527C72.2067 63.3259 73.3326 61.4764 74.421 59.6053C75.5276 57.7033 76.5913 55.7772 77.6114 53.8283ZM70.3506 57.2783C68.6843 60.1471 66.9244 62.9615 65.0736 65.717C61.721 65.9523 58.361 66.0692 55 66.0675C51.5767 66.0675 48.247 65.9619 45.0407 65.7557C43.1416 63.0066 41.3481 60.1873 39.664 57.3038C37.9879 54.4356 36.4227 51.5053 34.971 48.5193C36.419 45.5326 37.9799 42.601 39.6503 39.7306L39.6498 39.731C41.3196 36.8598 43.0988 34.0526 44.9836 31.3153C48.2548 31.07 51.6093 30.9422 54.9996 30.9422C58.4053 30.9422 61.7646 31.0713 65.0349 31.3183C66.9007 34.0515 68.6685 36.8491 70.3351 39.7059C72.0111 42.57 73.5926 45.4873 75.0772 48.4533C73.6078 51.4497 72.0313 54.3932 70.3506 57.2783ZM80.0443 5.26884C83.7276 7.37436 85.1602 15.865 82.8459 26.9995C82.6981 27.7098 82.5322 28.4334 82.3518 29.1672C77.7876 28.1229 72.832 27.3466 67.6436 26.8641C64.6211 22.5981 61.4891 18.7196 58.3451 15.3621C59.1691 14.5748 60.0127 13.808 60.8751 13.0623C68.9962 6.05799 76.5862 3.29236 80.0443 5.26884ZM55 38.6727C60.4248 38.6727 64.8227 43.0315 64.8227 48.4082C64.8227 53.7848 60.4248 58.1437 55 58.1437C49.5752 58.1437 45.1773 53.7848 45.1773 48.4082C45.1773 43.0315 49.5752 38.6727 55 38.6727Z" fill="#00D8FF"/>
</svg>
