<svg width="100" height="100" viewBox="0 0 100 100" fill="none" xmlns="http://www.w3.org/2000/svg">
<g clip-path="url(#clip0_514_2)">
<path d="M90.9781 5.18983C89.5776 8.54974 87.7847 11.7323 85.6367 14.6711C76.2257 5.26553 63.4654 -0.0187086 50.1602 -0.0203247C22.6438 -0.0203247 4.64901e-08 22.6422 4.64901e-08 50.189C-0.000292557 56.9914 1.38063 63.7231 4.05907 69.9759C6.73751 76.2288 10.6577 81.8727 15.582 86.5656L17.432 88.2062C26.4734 95.8292 37.9169 100.013 49.743 100.02C75.9047 100.02 97.8969 79.5203 99.7594 53.393C101.127 40.6031 97.3758 24.4265 90.9781 5.18983ZM22.7086 86.8515C22.3058 87.3478 21.7975 87.7479 21.2205 88.0228C20.6436 88.2977 20.0125 88.4404 19.3734 88.4406C17.0156 88.4406 15.0867 86.5 15.0867 84.1422C15.0867 81.7851 17.0281 79.8445 19.3734 79.8445C20.35 79.8445 21.3148 80.1828 22.0703 80.8086C23.907 82.293 24.1937 85.0148 22.7086 86.8515ZM90.7703 71.8219C78.393 88.3234 51.9578 82.7617 35.0078 83.5562C35.0078 83.5562 31.9984 83.7391 28.9758 84.2336C28.9758 84.2336 30.1086 83.7516 31.5812 83.1914C43.4766 79.05 49.1047 78.2422 56.3352 74.5305C69.95 67.6016 83.4086 52.4414 86.2102 36.6687C81.025 51.8422 65.3117 64.8797 50.9938 70.1805C41.1836 73.8016 23.4641 77.318 23.4641 77.318L22.7477 76.9398C10.6836 71.0664 10.318 44.9266 32.2453 36.4867C41.8477 32.7875 51.0328 34.8195 61.4039 32.3445C72.4781 29.7141 85.2852 21.4039 90.4961 10.568C96.3328 27.9039 103.356 55.0461 90.7703 71.8219Z" fill="#77BC1F"/>
</g>
<defs>
<clipPath id="clip0_514_2">
<rect width="100" height="100" fill="white"/>
</clipPath>
</defs>
</svg>
