<svg width="117" height="70" viewBox="0 0 117 70" fill="none" xmlns="http://www.w3.org/2000/svg">
<path d="M29.25 23.3333C33.15 7.77778 42.9 0 58.5 0C81.9 0 84.825 17.5 96.525 20.4167C104.325 22.3611 111.15 19.4444 117 11.6667C113.1 27.2222 103.35 35 87.75 35C64.35 35 61.425 17.5 49.725 14.5833C41.925 12.6389 35.1 15.5556 29.25 23.3333ZM0 58.3333C3.9 42.7778 13.65 35 29.25 35C52.65 35 55.575 52.5 67.275 55.4167C75.075 57.3611 81.9 54.4444 87.75 46.6667C83.85 62.2222 74.1 70 58.5 70C35.1 70 32.175 52.5 20.475 49.5833C12.675 47.6389 5.85 50.5556 0 58.3333Z" fill="#44A8B3"/>
</svg>
