<svg width="100" height="100" viewBox="0 0 100 100" fill="none" xmlns="http://www.w3.org/2000/svg">
<g clip-path="url(#clip0_514_25)">
<mask id="mask0_514_25" style="mask-type:luminance" maskUnits="userSpaceOnUse" x="12" y="0" width="81" height="70">
<path d="M12.0728 0.161743H92.6603V69.8211H12.0728V0.161743Z" fill="white"/>
</mask>
<g mask="url(#mask0_514_25)">
<path d="M52.3565 0.167969L92.6362 69.8211H12.0737L52.3565 0.167969Z" fill="black"/>
</g>
<mask id="mask1_514_25" style="mask-type:luminance" maskUnits="userSpaceOnUse" x="0" y="76" width="100" height="24">
<path d="M0 76.5078H100V100H0V76.5078Z" fill="white"/>
</mask>
<g mask="url(#mask1_514_25)">
<path d="M32.6351 81.7875C27.3867 81.7875 23.6023 85.2235 23.6023 90.3719C23.6023 95.5235 27.8562 98.9563 33.1085 98.9563C36.2796 98.9563 39.0749 97.6961 40.8046 95.575L37.1703 93.4657C36.2093 94.5219 34.75 95.1352 33.1078 95.1352C30.832 95.1352 28.8968 93.9422 28.1796 92.0352H41.5007C41.6046 91.5008 41.6656 90.9492 41.6656 90.3688C41.6656 85.2235 37.8874 81.7875 32.6351 81.7875ZM28.1429 88.7024C28.7351 86.8008 30.3617 85.6047 32.6351 85.6047C34.9117 85.6047 36.5359 86.8008 37.1273 88.7024H28.1429ZM27.0664 76.5446L13.8945 99.4321L0.717137 76.5446H5.65776L13.8921 90.8477L22.1218 76.5446H27.0664ZM-17.4563 74.1578L0.110105 104.678H-35.0227L-17.4563 74.1578ZM60.7757 90.3719C60.7757 93.2344 62.6406 95.1414 65.5304 95.1414C67.4898 95.1414 68.9578 94.2477 69.714 92.7946L73.364 94.9063C71.8539 97.4336 69.0187 98.9563 65.5304 98.9563C60.2781 98.9563 56.4968 95.5235 56.4968 90.3719C56.4968 85.2235 60.2812 81.7867 65.5304 81.7867C69.0187 81.7867 71.8476 83.3102 73.364 85.8367L69.714 87.9485C68.9578 86.4953 67.4898 85.6047 65.5304 85.6047C62.6437 85.6047 60.7757 87.5125 60.7757 90.3719ZM99.9843 76.5438V98.4774H95.7062V76.5446L99.9843 76.5438ZM83.8226 81.7875C78.5734 81.7875 74.789 85.2235 74.789 90.3719C74.789 95.5235 79.05 98.9563 84.2984 98.9563C87.4695 98.9563 90.2648 97.6961 91.9953 95.575L88.3578 93.4657C87.3968 94.5219 85.9375 95.1352 84.2984 95.1352C82.0218 95.1352 80.0874 93.9422 79.3671 92.0352H92.6874C92.7914 91.5008 92.8554 90.9492 92.8554 90.3688C92.8554 85.2235 89.0742 81.7875 83.8226 81.7875ZM79.3304 88.7024C79.9257 86.8008 81.546 85.6047 83.8226 85.6047C86.0992 85.6047 87.7257 86.8008 88.3148 88.7024H79.3304ZM55.0726 82.2664V86.8867C54.5795 86.7371 54.0676 86.6582 53.5523 86.6524C50.7906 86.6524 48.7976 88.5586 48.7976 91.4219V98.4766H44.5187V82.2657H48.7976V86.6516C48.7976 84.2282 51.6062 82.2664 55.0726 82.2664Z" fill="black"/>
</g>
</g>
<defs>
<clipPath id="clip0_514_25">
<rect width="100" height="100" fill="white"/>
</clipPath>
</defs>
</svg>
