<svg xmlns="http://www.w3.org/2000/svg" xmlns:xlink="http://www.w3.org/1999/xlink" width="1106" zoomAndPan="magnify" viewBox="0 0 829.5 1001.249969" height="1335" preserveAspectRatio="xMidYMid meet" version="1.0"><defs><clipPath id="4718d154dd"><path d="M 0.488281 172.15625 L 828.941406 172.15625 L 828.941406 1000.5 L 0.488281 1000.5 Z M 0.488281 172.15625 " clip-rule="nonzero"/></clipPath><clipPath id="2e186bc79d"><path d="M 829.4375 586.628906 C 829.4375 357.722656 643.871094 172.15625 414.960938 172.15625 C 186.054688 172.15625 0.488281 357.722656 0.488281 586.628906 C 0.488281 815.539062 186.054688 1001.105469 414.960938 1001.105469 C 643.871094 1001.105469 829.4375 815.539062 829.4375 586.628906 " clip-rule="nonzero"/></clipPath><clipPath id="453a73ca8a"><path d="M 267.179688 33 L 647 33 L 647 351 L 267.179688 351 Z M 267.179688 33 " clip-rule="nonzero"/></clipPath><clipPath id="c3201c59ff"><path d="M 294 0 L 689.371094 0 L 689.371094 381.695312 L 294 381.695312 Z M 294 0 " clip-rule="nonzero"/></clipPath><clipPath id="c4aba37539"><path d="M 580.414062 69.828125 L 625.746094 69.828125 L 625.746094 115.15625 L 580.414062 115.15625 Z M 580.414062 69.828125 " clip-rule="nonzero"/></clipPath><clipPath id="24c873b639"><path d="M 603.082031 69.828125 C 590.5625 69.828125 580.414062 79.972656 580.414062 92.492188 C 580.414062 105.007812 590.5625 115.15625 603.082031 115.15625 C 615.597656 115.15625 625.746094 105.007812 625.746094 92.492188 C 625.746094 79.972656 615.597656 69.828125 603.082031 69.828125 " clip-rule="nonzero"/></clipPath></defs><g clip-path="url(#4718d154dd)"><g clip-path="url(#2e186bc79d)"><path fill="#ffd034" d="M 829.4375 172.15625 L 829.4375 1001.105469 L 0.488281 1001.105469 L 0.488281 172.15625 Z M 829.4375 172.15625 " fill-opacity="1" fill-rule="nonzero"/></g></g><g clip-path="url(#453a73ca8a)"><path fill="#ffffff" d="M 282.96875 249.085938 C 280.351562 250.015625 278.070312 250.859375 275.539062 250.773438 C 272.414062 250.691406 270.894531 248.492188 272.246094 245.621094 C 271.066406 245.453125 269.882812 245.117188 268.871094 244.609375 C 267.941406 244.1875 267.265625 243.59375 267.179688 242.414062 C 267.179688 241.230469 267.605469 240.46875 268.617188 239.878906 C 270.222656 238.949219 271.992188 238.527344 273.765625 238.273438 C 278.832031 237.429688 283.390625 235.570312 287.105469 231.769531 C 289.214844 229.574219 291.664062 227.632812 294.113281 225.773438 C 296.980469 223.578125 299.007812 220.789062 300.78125 217.75 C 305.929688 208.457031 310.40625 198.828125 314.964844 189.285156 C 320.113281 178.558594 324.585938 167.492188 330.160156 157.019531 C 333.957031 149.839844 337.335938 142.492188 340.457031 134.972656 C 341.050781 133.621094 341.894531 133.03125 343.328125 133.117188 C 347.382812 133.453125 350.757812 135.480469 353.628906 138.097656 C 357.511719 141.648438 361.140625 145.53125 364.097656 149.839844 C 364.433594 150.347656 364.773438 150.683594 364.265625 151.445312 C 360.042969 158.203125 356.078125 165.210938 351.601562 171.800781 C 345.015625 181.765625 338.011719 191.480469 331.339844 201.363281 C 326.78125 208.035156 322.222656 214.792969 318.59375 222.058594 C 317.664062 223.832031 316.652344 225.605469 316.0625 227.546875 C 314.878906 231.601562 316.90625 235.65625 320.957031 236.921875 C 322.816406 237.511719 324.757812 238.019531 326.613281 238.613281 C 327.878906 238.949219 328.808594 239.457031 328.894531 240.976562 C 328.894531 242.496094 328.894531 243.765625 327.035156 244.441406 C 323.828125 245.539062 320.789062 244.691406 317.664062 244.269531 C 315.640625 244.015625 313.699219 243.171875 311.585938 243.089844 C 308.464844 242.917969 306.4375 244.355469 304.664062 246.71875 C 302.636719 249.421875 300.359375 251.957031 297.828125 254.238281 C 297.574219 254.492188 297.234375 254.660156 296.898438 254.914062 C 293.859375 256.941406 292.253906 256.519531 290.820312 253.054688 C 290.058594 253.5625 289.300781 254.070312 288.457031 254.492188 C 287.527344 254.996094 286.515625 255.503906 285.417969 255.671875 C 283.136719 256.011719 281.871094 254.660156 282.378906 252.378906 C 282.460938 251.367188 282.714844 250.351562 282.96875 249.085938 Z M 395.839844 47.382812 C 391.871094 44.765625 387.398438 46.285156 385.792969 50.761719 C 385.285156 52.113281 385.117188 53.550781 384.863281 54.902344 C 383.851562 60.222656 387.226562 65.039062 392.632812 65.628906 C 393.980469 65.796875 394.320312 66.304688 394.320312 67.65625 C 394.320312 71.289062 394.574219 74.917969 396.175781 78.214844 C 396.683594 79.3125 396.597656 80.242188 396.09375 81.339844 C 394.488281 84.546875 392.632812 87.589844 390.519531 90.460938 C 389.253906 92.234375 389.253906 93.25 390.859375 94.769531 C 393.136719 96.878906 395.921875 97.894531 398.878906 98.824219 C 404.957031 100.597656 412.300781 97.554688 415.085938 91.898438 C 415.59375 90.800781 416.183594 90.628906 417.28125 90.96875 C 420.828125 92.234375 424.203125 91.558594 427.242188 89.449219 C 431.296875 86.746094 434.757812 83.367188 437.457031 79.3125 C 442.523438 71.878906 445.308594 63.515625 447.84375 54.984375 C 448.179688 53.886719 447.757812 53.042969 447.082031 52.285156 C 446.40625 51.609375 445.476562 51.609375 444.632812 51.609375 C 442.015625 51.609375 439.398438 51.609375 436.78125 50.847656 C 435.9375 50.59375 435.011719 50.339844 435.09375 49.074219 C 435.261719 47.046875 434.757812 45.019531 433.996094 43.160156 C 432.816406 39.953125 431.632812 36.742188 428.59375 34.800781 C 427.496094 34.039062 426.230469 33.277344 424.964844 34.125 C 423.613281 34.96875 424.457031 36.320312 424.710938 37.417969 C 425.640625 41.386719 426.0625 45.273438 424.542969 49.160156 C 424.035156 50.59375 423.105469 51.523438 421.585938 52.03125 C 419.730469 52.621094 417.871094 52.960938 415.929688 52.960938 C 413.0625 52.875 410.273438 52.789062 407.40625 52.707031 C 406.136719 52.707031 404.871094 53.296875 403.4375 52.789062 C 404.28125 50.171875 404.195312 47.636719 403.773438 45.019531 C 403.269531 41.980469 402.339844 39.023438 400.144531 36.742188 C 399.382812 35.898438 398.371094 35.222656 397.273438 35.8125 C 396.09375 36.488281 396.34375 37.585938 396.597656 38.683594 C 397.273438 41.726562 397.441406 44.851562 396.683594 48.144531 C 396.261719 47.636719 396.09375 47.46875 395.839844 47.382812 Z M 507.359375 193.929688 C 507.441406 194.015625 507.441406 194.015625 507.527344 194.097656 C 509.214844 194.859375 510.90625 195.621094 511.328125 197.730469 C 511.410156 198.238281 511.75 198.746094 512.085938 199.167969 C 513.097656 200.601562 514.113281 200.601562 515.210938 199.25 C 515.886719 198.40625 515.886719 197.308594 516.390625 196.378906 C 517.742188 197.054688 518.671875 196.464844 519.429688 195.449219 C 520.273438 194.351562 519.347656 193.59375 518.839844 192.832031 C 518.25 191.902344 517.574219 191.226562 516.8125 190.46875 C 515.039062 188.691406 513.015625 187.257812 511.328125 185.398438 C 508.710938 182.441406 505.417969 181.597656 501.617188 182.613281 C 498.496094 183.371094 495.371094 184.132812 492.246094 184.808594 C 489.292969 185.484375 486.761719 184.722656 484.648438 182.359375 C 482.707031 180.078125 481.441406 177.542969 480.257812 174.757812 C 478.910156 171.632812 477.050781 168.675781 475.699219 165.550781 C 472.324219 157.695312 468.609375 149.925781 465.65625 141.898438 C 464.136719 137.847656 462.195312 134.042969 461.097656 129.820312 C 459.492188 123.738281 457.296875 117.828125 454.847656 112.085938 C 454.511719 111.410156 454.425781 110.308594 453.414062 110.308594 C 452.570312 110.308594 452.230469 111.15625 451.808594 111.746094 C 449.191406 115.210938 446.996094 118.925781 445.140625 122.894531 C 444.210938 124.839844 443.285156 126.867188 443.367188 129.144531 C 443.535156 131.847656 443.957031 134.550781 443.957031 137.253906 C 443.875 143 444.550781 148.574219 445.984375 154.148438 C 447.167969 158.707031 448.179688 163.4375 451.21875 167.324219 C 453.75 170.617188 456.285156 173.828125 458.902344 177.121094 C 463.039062 182.359375 467.679688 187.089844 471.902344 192.242188 C 474.097656 194.859375 476.546875 197.308594 476.96875 201.023438 C 477.050781 201.785156 477.726562 202.207031 478.402344 202.460938 C 482.285156 204.148438 486.761719 204.148438 490.136719 207.273438 C 491.148438 208.203125 493.429688 208.121094 495.203125 207.445312 C 497.398438 206.601562 497.734375 204.234375 495.960938 202.714844 C 495.371094 202.207031 494.78125 201.785156 494.1875 201.277344 C 493.007812 200.347656 492.667969 198.996094 493.089844 197.730469 C 493.515625 196.632812 494.695312 196.886719 495.707031 196.886719 C 496.046875 196.886719 496.46875 196.972656 496.804688 197.140625 C 498.242188 197.5625 499.59375 198.152344 501.027344 198.492188 C 503.304688 199.082031 505.164062 200.011719 505.921875 202.460938 C 506.175781 203.222656 506.851562 203.726562 507.695312 203.726562 C 508.539062 203.726562 509.300781 203.304688 509.636719 202.460938 C 510.566406 199.925781 509.808594 197.644531 508.371094 195.621094 C 508.035156 195.195312 507.527344 194.859375 507.527344 194.269531 C 507.527344 194.097656 507.441406 194.015625 507.359375 193.929688 Z M 608.496094 324.933594 C 603.429688 322.824219 598.363281 320.710938 593.46875 318.347656 C 590.933594 317.164062 589.164062 315.304688 587.472656 313.363281 C 587.390625 313.277344 587.222656 313.023438 587.304688 312.941406 C 587.8125 311.671875 586.714844 311.25 586.039062 310.660156 C 585.027344 309.644531 584.941406 308.886719 586.207031 308.210938 C 587.136719 307.789062 586.796875 307.28125 586.714844 306.605469 C 585.617188 306.265625 584.605469 306.691406 583.589844 306.859375 C 577.089844 307.789062 571.773438 310.574219 568.480469 316.570312 C 566.539062 320.203125 565.777344 324.175781 564.511719 328.058594 C 562.992188 332.535156 564.175781 336.589844 566.285156 340.644531 C 567.296875 342.671875 568.902344 343.433594 570.675781 344.277344 C 572.445312 345.207031 574.390625 344.867188 576.160156 345.289062 C 584.179688 347.316406 592.203125 349.175781 600.304688 350.1875 C 600.980469 350.273438 601.742188 350.359375 602.332031 349.851562 C 604.019531 348.332031 605.878906 346.894531 607.480469 345.289062 C 610.605469 341.996094 613.730469 338.53125 616.683594 335.070312 C 618.035156 333.464844 619.722656 332.199219 620.90625 330.171875 C 616.683594 328.3125 612.546875 326.625 608.496094 324.933594 Z M 643.53125 303.988281 C 638.378906 300.609375 633.144531 297.484375 628.585938 293.34375 C 624.027344 289.289062 619.214844 285.488281 614.574219 281.433594 C 613.730469 280.757812 612.96875 280.675781 612.039062 281.011719 C 607.226562 282.703125 603.429688 285.910156 599.714844 289.289062 C 594.902344 293.765625 591.527344 299.171875 590.175781 305.84375 C 591.949219 306.859375 593.804688 307.789062 595.578125 308.96875 C 598.449219 310.914062 601.910156 311.589844 604.863281 313.363281 C 610.183594 316.488281 615.332031 319.949219 620.988281 322.570312 C 622.847656 323.414062 622.847656 323.75 621.578125 325.355469 C 623.183594 327.214844 623.605469 327.300781 625.125 325.527344 C 628.925781 321.132812 633.398438 317.417969 637.449219 313.195312 C 639.5625 310.996094 641.839844 309.222656 644.542969 307.957031 C 645.386719 307.535156 646.144531 307.027344 646.316406 305.761719 C 645.386719 305.167969 644.457031 304.578125 643.53125 303.988281 Z M 643.53125 303.988281 " fill-opacity="1" fill-rule="nonzero"/></g><path fill="#7196ff" d="M 367.050781 151.78125 C 365.277344 152.964844 364.519531 152.878906 363.335938 151.105469 C 360.550781 146.96875 357.257812 143.167969 353.375 140.042969 C 349.492188 136.917969 345.015625 135.058594 340.207031 134.214844 C 338.601562 133.960938 338.09375 133.285156 338.433594 131.511719 C 339.613281 125.261719 342.570312 119.855469 346.789062 115.039062 C 351.601562 109.464844 358.1875 106.507812 364.519531 103.132812 C 371.777344 99.328125 379.292969 95.953125 385.960938 91.136719 C 387.398438 90.125 389.167969 90.292969 390.351562 91.644531 C 396.261719 97.980469 403.519531 98.0625 410.613281 94.851562 C 412.554688 94.007812 414.328125 92.996094 415.339844 90.96875 C 415.679688 90.375 416.183594 90.125 416.859375 90.460938 C 419.644531 91.898438 422.429688 91.050781 425.046875 89.953125 C 427.664062 88.941406 430.027344 87.503906 431.972656 85.394531 C 432.644531 84.632812 433.320312 84.632812 434.164062 84.972656 C 437.375 86.070312 439.820312 88.265625 442.523438 90.207031 C 446.996094 93.417969 449.613281 98.0625 452.230469 102.707031 C 453.246094 104.398438 453.921875 106.257812 454.933594 107.945312 C 455.523438 108.957031 455.441406 109.804688 454.679688 110.648438 C 452.992188 112.675781 451.21875 114.785156 449.53125 116.898438 C 447.503906 119.433594 446.152344 122.304688 445.054688 125.261719 C 444.378906 127.289062 445.308594 129.230469 445.730469 131.171875 C 447.421875 138.945312 449.363281 146.628906 450.460938 154.484375 C 451.21875 159.722656 451.640625 164.957031 451.894531 170.195312 C 451.980469 172.308594 452.484375 174.417969 451.980469 176.613281 C 451.808594 177.375 451.640625 178.050781 450.710938 178.050781 C 449.699219 178.050781 449.613281 177.289062 449.53125 176.445312 C 448.855469 163.523438 447.421875 150.683594 444.128906 138.183594 C 443.199219 134.71875 442.4375 131.257812 441.089844 127.964844 C 440.667969 126.949219 440.328125 126.613281 439.148438 126.867188 C 434.925781 127.710938 430.875 129.230469 426.820312 130.75 C 412.132812 136.242188 397.273438 141.648438 382.839844 147.726562 C 381.488281 148.320312 380.304688 148.996094 378.953125 149.5 C 377.773438 149.925781 377.605469 150.601562 377.855469 151.78125 C 379.207031 157.019531 380.472656 162.257812 381.570312 167.578125 C 383.261719 175.9375 383.007812 184.214844 380.390625 192.410156 C 379.039062 196.632812 376.421875 199.925781 372.707031 202.292969 C 372.199219 202.628906 371.777344 202.628906 371.355469 202.292969 C 370.851562 201.953125 370.429688 201.617188 370.511719 201.023438 C 371.019531 197.644531 370.175781 194.4375 369.835938 191.144531 C 369.246094 185.566406 368.992188 179.992188 368.824219 174.417969 C 368.65625 167.070312 368.402344 159.722656 367.304688 152.457031 C 367.21875 152.203125 367.136719 152.035156 367.050781 151.78125 Z M 305.847656 206.347656 C 305.003906 206.261719 303.988281 206.09375 303.90625 207.277344 C 303.820312 208.375 304.75 208.710938 305.675781 208.878906 C 307.195312 209.050781 308.714844 209.300781 310.234375 209.300781 C 311.417969 209.300781 312.09375 209.726562 312.769531 210.738281 C 314.371094 213.355469 316.144531 215.804688 317.835938 218.425781 C 318.339844 219.183594 318.929688 219.859375 319.859375 219.269531 C 320.789062 218.679688 320.449219 217.75 319.859375 216.988281 C 319.691406 216.734375 319.523438 216.480469 319.269531 216.144531 C 317.917969 214.203125 316.652344 212.175781 315.132812 209.976562 C 318.339844 210.484375 321.210938 210.90625 324.164062 211.328125 C 325.09375 211.5 326.023438 211.582031 326.191406 210.402344 C 326.359375 209.300781 325.347656 208.796875 324.503906 208.796875 C 321.464844 208.542969 318.59375 207.699219 315.640625 207.359375 C 314.035156 207.191406 312.769531 206.769531 312.007812 205.164062 C 311.332031 203.726562 310.320312 202.375 309.390625 201.023438 C 308.886719 200.265625 308.210938 200.011719 307.535156 200.773438 C 307.027344 201.277344 307.367188 201.953125 307.621094 202.460938 C 308.378906 203.8125 309.222656 205.164062 310.152344 206.769531 C 308.464844 206.601562 307.113281 206.429688 305.847656 206.347656 Z M 473.421875 188.609375 C 477.136719 185.820312 480.429688 182.441406 483.296875 178.894531 C 483.636719 178.472656 483.804688 178.050781 483.46875 177.542969 C 483.128906 177.039062 482.539062 176.953125 482.03125 177.121094 C 481.527344 177.289062 481.105469 177.714844 480.765625 178.136719 C 480.175781 178.894531 479.585938 179.738281 478.910156 180.414062 C 476.207031 182.949219 473.84375 185.90625 470.46875 187.59375 C 469.875 187.847656 469.453125 188.355469 469.621094 189.03125 C 469.792969 189.539062 470.214844 189.792969 470.890625 189.875 C 471.648438 189.539062 472.578125 189.199219 473.421875 188.609375 Z M 483.804688 183.203125 C 483.382812 183.371094 483.046875 183.792969 482.792969 184.214844 C 481.441406 186.242188 479.835938 188.015625 477.8125 189.367188 C 476.628906 190.214844 475.53125 191.226562 474.351562 192.15625 C 473.757812 192.578125 473.421875 193.167969 473.929688 193.84375 C 474.351562 194.519531 474.855469 194.519531 475.53125 194.183594 C 475.699219 194.097656 475.871094 194.097656 475.953125 194.015625 C 479.414062 191.480469 483.046875 189.117188 485.15625 185.0625 C 485.324219 184.808594 485.410156 184.46875 485.492188 184.132812 C 485.242188 183.289062 484.734375 182.78125 483.804688 183.203125 Z M 483.804688 183.203125 " fill-opacity="1" fill-rule="nonzero"/><path fill="#209d5c" d="M 384.695312 145.363281 C 381.910156 133.960938 377.433594 123.402344 372.875 112.761719 C 371.273438 108.957031 368.824219 105.664062 365.277344 103.214844 C 364.011719 102.371094 364.097656 101.527344 365.195312 100.597656 C 366.121094 99.835938 367.21875 99.414062 368.234375 98.90625 C 369.921875 98.0625 371.609375 97.304688 373.214844 96.457031 C 375.070312 95.445312 375.664062 95.527344 376.929688 97.304688 C 380.222656 101.863281 383.089844 106.761719 385.03125 112.085938 C 387.820312 119.769531 391.195312 127.117188 393.390625 135.058594 C 393.8125 136.578125 394.234375 138.097656 394.574219 139.703125 C 394.824219 141.140625 395.417969 141.5625 396.851562 141.054688 C 399.722656 140.125 402.421875 138.691406 405.039062 137.339844 C 412.722656 133.199219 420.828125 129.820312 429.183594 126.78125 C 427.835938 114.785156 426.230469 102.707031 422.9375 90.714844 C 426.144531 89.699219 429.269531 88.351562 432.308594 85.730469 C 435.011719 99.160156 436.445312 112.253906 438.726562 125.34375 C 440.582031 125.429688 441.59375 126.613281 442.269531 128.21875 C 445.902344 136.832031 448.265625 145.785156 449.953125 154.90625 C 451.472656 163.605469 452.0625 172.390625 453.074219 181.089844 C 454.003906 189.707031 458.226562 195.789062 465.65625 199.757812 C 469.792969 201.953125 473.253906 205.078125 477.304688 207.445312 C 483.722656 211.246094 490.726562 213.863281 497.480469 216.988281 C 507.273438 221.464844 517.066406 226.027344 526.777344 230.503906 C 531.839844 232.867188 537.074219 234.726562 542.308594 236.5 C 549.652344 239.117188 556.492188 242.835938 563.246094 246.636719 C 576.667969 254.070312 590.597656 260.402344 604.441406 266.992188 C 609.59375 269.441406 614.742188 271.976562 619.976562 274.507812 C 620.484375 274.761719 621.074219 275.015625 621.496094 275.4375 C 622.339844 276.28125 622.003906 277.464844 620.820312 277.632812 C 619.808594 277.804688 618.792969 277.886719 617.695312 277.550781 C 609.84375 274.847656 602.753906 277.632812 598.195312 284.308594 C 594.226562 290.136719 591.863281 296.636719 590.261719 303.394531 C 590.007812 304.410156 589.667969 305.507812 589.667969 306.605469 C 589.667969 307.789062 588.570312 308.125 587.390625 307.195312 C 585.617188 305.84375 583.589844 305 581.480469 304.492188 C 576.332031 303.226562 572.53125 305.675781 569.324219 309.308594 C 564.847656 314.460938 562.570312 320.625 561.304688 327.214844 C 559.699219 335.746094 559.867188 344.445312 559.53125 353.144531 C 559.445312 354.75 559.363281 356.4375 559.191406 358.042969 C 559.109375 359.058594 558.519531 359.566406 557.503906 359.058594 C 550.074219 355.511719 542.222656 353.0625 534.710938 349.9375 C 527.535156 346.980469 520.527344 343.601562 513.773438 339.800781 C 504.488281 334.5625 494.695312 330.339844 484.988281 325.863281 C 478.488281 322.824219 472.238281 319.273438 465.65625 316.488281 C 448.941406 309.308594 432.394531 302.042969 415.761719 294.695312 C 410.105469 292.160156 405.039062 288.53125 399.300781 286.164062 C 395.246094 284.476562 391.28125 282.363281 387.566406 279.914062 C 379.207031 274.59375 373.636719 266.992188 370.257812 257.785156 C 368.992188 254.320312 367.640625 250.945312 366.292969 247.566406 C 363.84375 241.398438 364.179688 234.894531 364.519531 228.390625 C 364.773438 222.984375 365.785156 217.664062 365.449219 212.175781 C 365.277344 209.472656 365.785156 206.683594 366.121094 203.980469 C 366.292969 202.628906 366.375 202.628906 368.570312 201.871094 C 368.402344 200.097656 368.148438 198.320312 367.980469 196.546875 C 367.21875 188.101562 367.21875 179.65625 367.21875 171.210938 C 367.21875 165.632812 366.292969 160.230469 366.039062 154.652344 C 366.039062 154.148438 366.039062 153.554688 366.039062 153.050781 C 366.039062 152.375 366.292969 151.699219 367.136719 151.613281 C 368.0625 151.527344 368.402344 152.289062 368.316406 153.050781 C 368.316406 155.328125 368.65625 157.609375 368.992188 159.890625 C 370.175781 168.085938 369.667969 176.445312 370.007812 184.722656 C 370.175781 189.707031 370.175781 194.773438 371.1875 199.84375 C 373.214844 199.25 374.734375 198.152344 375.914062 196.464844 C 378.871094 192.15625 380.136719 187.171875 380.894531 182.019531 C 382.078125 173.660156 380.050781 165.804688 377.855469 157.949219 C 377.351562 156.089844 376.84375 154.148438 376.421875 152.203125 C 375.914062 149.925781 376.421875 148.996094 378.617188 148.066406 C 380.558594 147.222656 382.667969 146.292969 384.695312 145.363281 Z M 687.007812 297.820312 C 686.753906 295.457031 686.667969 292.921875 684.472656 291.316406 C 683.292969 290.386719 681.519531 290.558594 680.757812 289.121094 C 680.675781 288.953125 680.253906 289.035156 680 289.035156 C 678.816406 288.953125 677.71875 289.289062 676.707031 289.796875 C 669.699219 293.175781 663.960938 297.988281 659.402344 304.324219 C 655.011719 310.40625 654.25 317.246094 654.589844 324.425781 C 654.757812 328.734375 654.925781 333.042969 655.179688 337.433594 C 655.347656 340.730469 656.109375 343.855469 658.050781 346.640625 C 662.269531 352.554688 668.347656 353.144531 673.414062 347.910156 C 675.523438 345.710938 677.128906 343.179688 678.5625 340.476562 C 681.601562 334.480469 682.953125 328.058594 684.472656 321.640625 C 685.910156 315.644531 687.089844 309.644531 687.257812 302.804688 C 687.34375 301.539062 687.175781 299.679688 687.007812 297.820312 Z M 642.9375 310.660156 C 643.359375 310.238281 643.699219 309.816406 643.277344 309.222656 C 642.9375 308.632812 642.347656 308.632812 641.839844 308.800781 C 640.914062 309.140625 640.152344 309.730469 639.394531 310.40625 C 636.691406 312.769531 634.75 315.644531 632.976562 318.683594 C 626.644531 329.328125 622.339844 340.644531 620.398438 352.890625 C 619.636719 357.875 618.710938 362.941406 619.46875 368.09375 C 620.058594 372.066406 621.664062 375.273438 625.800781 376.457031 C 629.601562 377.554688 632.890625 376.371094 635.59375 373.585938 C 638.378906 370.714844 640.492188 367.417969 642.09375 363.789062 C 645.722656 355.59375 648.679688 347.148438 651.210938 338.53125 C 652.898438 332.875 653.660156 327.214844 651.972656 321.386719 C 651.042969 318.175781 649.4375 315.304688 646.90625 313.109375 C 645.132812 311.589844 643.023438 312.179688 640.828125 312.347656 C 641.417969 311.503906 642.261719 311.167969 642.9375 310.660156 Z M 646.484375 287.433594 C 646.144531 285.910156 645.808594 284.308594 644.964844 282.957031 C 643.78125 280.84375 641.671875 280.84375 640.40625 282.871094 C 639.816406 283.882812 639.394531 285.066406 639.222656 286.25 C 638.210938 292.414062 639.984375 297.90625 642.683594 303.3125 C 643.699219 305.421875 646.738281 305.421875 648.003906 303.480469 C 648.761719 302.296875 649.523438 301.03125 650.199219 299.847656 C 652.476562 295.878906 655.09375 292.078125 656.445312 287.601562 C 657.289062 284.730469 657.628906 281.773438 656.363281 278.902344 C 655.601562 276.957031 653.914062 276.707031 652.476562 278.140625 C 651.71875 278.902344 651.210938 279.746094 650.707031 280.757812 C 649.4375 283.378906 648.171875 285.996094 646.90625 288.699219 C 646.484375 288.359375 646.570312 287.855469 646.484375 287.433594 Z M 646.738281 300.609375 C 646.738281 300.609375 646.652344 300.609375 646.738281 300.609375 C 646.738281 300.609375 646.820312 300.609375 646.90625 300.609375 C 646.484375 297.988281 647.328125 295.539062 648.089844 293.089844 C 649.4375 288.953125 651.210938 285.066406 653.238281 281.265625 C 653.492188 280.84375 653.574219 280.335938 654.25 280.167969 C 655.179688 282.703125 654.757812 285.066406 653.914062 287.515625 C 652.226562 292.246094 649.523438 296.386719 646.90625 300.609375 C 646.820312 300.609375 646.820312 300.609375 646.738281 300.609375 Z M 642.683594 284.136719 C 644.878906 289.121094 645.050781 294.273438 643.78125 299.511719 C 641.671875 294.527344 640.574219 289.460938 642.683594 284.136719 Z M 611.703125 309.394531 C 610.859375 306.859375 609.761719 305.675781 608.242188 305.761719 C 606.804688 305.84375 605.371094 307.535156 605.117188 309.898438 C 604.527344 315.136719 605.457031 320.035156 608.15625 324.597656 C 608.917969 325.949219 609.339844 327.804688 611.449219 328.144531 C 612.039062 328.226562 612.546875 328.398438 612.96875 327.890625 C 613.308594 327.46875 613.308594 326.875 612.96875 326.539062 C 612.039062 325.527344 612.632812 324.765625 613.308594 324.003906 C 613.730469 323.5 614.152344 322.992188 614.488281 322.484375 C 616.597656 319.699219 619.132812 317.164062 620.484375 313.871094 C 621.496094 311.335938 622.507812 308.71875 621.578125 305.929688 C 620.652344 303.226562 618.035156 302.71875 616.09375 304.832031 C 615.164062 305.84375 614.574219 307.113281 614.066406 308.378906 C 613.558594 309.730469 613.136719 310.996094 612.632812 312.347656 C 612.292969 311.417969 611.957031 310.40625 611.703125 309.394531 Z M 613.476562 319.699219 C 613.308594 316.234375 616.683594 307.449219 618.964844 305.929688 C 619.976562 311.84375 616.683594 315.644531 613.476562 319.699219 Z M 609.675781 322.148438 C 607.226562 318.769531 606.554688 311.167969 608.496094 308.210938 C 610.773438 312.855469 609.761719 317.417969 609.675781 322.148438 Z M 316.144531 227.882812 C 316.316406 227.292969 315.976562 226.785156 315.46875 226.535156 C 314.964844 226.28125 314.457031 226.109375 313.949219 225.859375 C 311.503906 224.929688 309.222656 223.914062 307.195312 222.226562 C 304.578125 220.113281 302.046875 217.75 300.867188 214.453125 C 300.613281 213.695312 300.445312 213.019531 299.515625 213.1875 C 298.585938 213.355469 298.417969 214.203125 298.5 215.046875 C 298.671875 215.976562 299.09375 216.820312 299.597656 217.578125 C 303.058594 222.816406 307.703125 226.535156 313.78125 228.390625 C 314.121094 228.476562 314.542969 228.558594 314.625 228.644531 C 315.554688 228.8125 315.976562 228.476562 316.144531 227.882812 Z M 302.214844 209.976562 C 303.566406 211.753906 305.003906 213.527344 306.351562 215.300781 C 308.800781 218.507812 311.585938 221.464844 315.132812 223.578125 C 315.976562 224.082031 316.90625 224.589844 317.582031 223.492188 C 318.171875 222.480469 317.242188 221.972656 316.484375 221.464844 C 313.699219 219.777344 311.332031 217.664062 309.308594 215.046875 C 307.535156 212.765625 305.59375 210.570312 303.820312 208.289062 C 303.566406 207.949219 303.230469 207.613281 302.722656 207.613281 C 301.792969 207.699219 301.457031 208.878906 302.214844 209.976562 Z M 302.214844 209.976562 " fill-opacity="1" fill-rule="nonzero"/><path fill="#5589ff" d="M 622.675781 379.921875 C 614.742188 380.257812 608.324219 376.035156 602.667969 370.375 C 599.460938 367.082031 596.589844 363.449219 595.578125 358.71875 C 594.734375 354.582031 595.410156 350.527344 596.339844 346.558594 C 597.6875 340.980469 599.546875 335.578125 602.332031 330.507812 C 603.515625 328.3125 605.117188 326.625 607.652344 325.949219 C 609.59375 325.355469 610.773438 324.089844 611.703125 322.0625 C 614.910156 314.96875 619.132812 308.546875 625.714844 304.070312 C 631.203125 300.355469 637.113281 299.511719 643.445312 301.199219 C 644.542969 301.453125 644.964844 301.199219 645.640625 300.269531 C 646.992188 298.328125 648.171875 296.300781 649.523438 294.359375 C 652.394531 290.386719 656.699219 288.445312 661.171875 286.757812 C 667 284.644531 673.078125 284.558594 679.15625 284.8125 C 680.335938 284.898438 681.519531 285.320312 682.195312 286.417969 C 682.53125 286.925781 682.617188 287.433594 682.277344 287.9375 C 681.855469 288.445312 681.265625 288.445312 680.84375 288.109375 C 679.492188 287.179688 678.226562 287.601562 677.042969 288.359375 C 675.609375 289.207031 674.425781 290.386719 673.328125 291.570312 C 667.167969 297.988281 661.765625 305.085938 656.785156 312.347656 C 655.855469 313.699219 654.671875 314.714844 653.660156 315.898438 C 653.238281 316.320312 652.648438 316.65625 652.054688 316.320312 C 651.378906 315.898438 651.378906 315.222656 651.800781 314.628906 C 652.308594 313.785156 652.054688 313.109375 651.378906 312.433594 C 650.707031 311.757812 650.113281 311.082031 649.523438 310.320312 C 646.652344 307.027344 640.488281 307.113281 637.28125 310.40625 C 628.839844 319.191406 624.027344 329.917969 621.578125 341.65625 C 619.636719 350.863281 618.792969 360.242188 618.203125 369.699219 C 618.035156 371.980469 618.878906 374.09375 619.46875 376.289062 C 619.636719 377.046875 620.144531 376.964844 620.652344 377.046875 C 624.789062 377.976562 628.417969 376.542969 631.792969 374.347656 C 631.964844 374.261719 632.132812 374.007812 632.300781 373.921875 C 632.976562 373.5 633.738281 373.078125 634.328125 373.921875 C 634.917969 374.683594 634.582031 375.445312 633.820312 375.949219 C 630.699219 378.148438 627.40625 380.257812 622.675781 379.921875 Z M 558.011719 331.351562 C 546.023438 327.890625 534.203125 324.003906 522.386719 320.035156 C 504.066406 313.785156 486.085938 306.941406 468.523438 298.917969 C 454.257812 292.414062 439.992188 285.996094 426.820312 277.464844 C 416.523438 270.792969 406.8125 263.527344 399.976562 252.886719 C 396.597656 247.648438 393.054688 242.496094 390.941406 236.585938 C 386.382812 223.746094 381.910156 210.90625 376.84375 198.238281 C 376.589844 197.5625 376.253906 196.800781 375.832031 196.210938 C 375.578125 195.703125 374.988281 195.621094 374.480469 195.871094 C 373.972656 196.125 373.804688 196.546875 373.890625 197.140625 C 373.972656 197.5625 374.226562 197.984375 374.3125 198.40625 C 377.855469 208.375 381.488281 218.253906 384.949219 228.222656 C 387.648438 235.910156 390.351562 243.59375 394.824219 250.519531 C 399.890625 258.292969 405.546875 265.472656 412.890625 271.214844 C 421.839844 278.308594 431.378906 284.308594 441.511719 289.375 C 456.367188 296.890625 471.480469 303.816406 486.929688 310.070312 C 505.417969 317.5 524.242188 324.003906 543.152344 330.003906 C 548.050781 331.605469 553.199219 332.535156 557.925781 334.730469 C 558.855469 335.15625 559.785156 334.308594 559.785156 333.128906 C 559.867188 331.945312 558.941406 331.605469 558.011719 331.351562 Z M 454.171875 113.773438 C 456.453125 120.445312 458.480469 127.203125 460.925781 133.792969 C 464.8125 143.925781 469.707031 153.726562 474.011719 163.691406 C 476.460938 169.351562 478.738281 175.09375 481.863281 180.414062 C 484.3125 184.554688 487.605469 186.917969 492.585938 185.820312 C 496.128906 185.0625 499.761719 184.808594 503.304688 184.046875 C 505.839844 183.457031 508.035156 183.710938 509.976562 185.738281 C 510.820312 186.582031 511.832031 187.34375 512.675781 188.1875 C 514.703125 190.128906 516.984375 191.902344 518.585938 194.351562 C 519.007812 195.027344 519.769531 195.449219 520.527344 194.945312 C 521.289062 194.4375 521.121094 193.59375 520.695312 192.917969 C 520.527344 192.664062 520.359375 192.324219 520.105469 192.070312 C 516.898438 188.269531 513.351562 184.890625 509.386719 181.9375 C 507.867188 180.753906 506.09375 180.753906 504.320312 181.089844 C 500.265625 181.851562 496.046875 182.105469 491.992188 183.117188 C 489.207031 183.792969 486.929688 183.035156 485.324219 180.585938 C 483.804688 178.386719 482.371094 176.023438 481.273438 173.660156 C 478.488281 167.578125 475.953125 161.410156 473.167969 155.328125 C 467.765625 143.421875 462.445312 131.511719 458.480469 119.011719 C 457.804688 116.8125 456.960938 114.617188 456.117188 112.421875 C 455.863281 111.746094 455.441406 111.070312 454.597656 111.324219 C 453.921875 111.492188 453.835938 112.085938 453.921875 112.929688 C 453.921875 112.929688 454.003906 113.351562 454.171875 113.773438 Z M 434.164062 165.972656 C 434.164062 164.957031 434.164062 164.03125 433.828125 163.015625 C 433.152344 160.988281 431.800781 160.144531 429.691406 160.652344 C 429.101562 160.820312 428.425781 161.074219 427.835938 161.328125 C 423.105469 163.269531 418.632812 165.632812 414.410156 168.421875 C 410.105469 171.292969 404.957031 172.8125 401.15625 176.53125 C 400.480469 177.207031 400.058594 177.796875 400.144531 178.726562 C 400.734375 183.625 401.15625 188.609375 402.507812 193.421875 C 403.773438 197.816406 406.8125 199.671875 411.371094 198.828125 C 417.789062 197.644531 422.855469 193.929688 427.835938 190.042969 C 430.789062 187.765625 432.476562 184.890625 433.070312 181.261719 C 433.742188 177.121094 434.25 172.984375 434.164062 169.265625 C 434.164062 167.914062 434.082031 166.984375 434.164062 165.972656 Z M 430.453125 181.007812 C 429.945312 184.46875 427.835938 186.835938 425.046875 188.945312 C 420.742188 192.15625 416.4375 195.367188 410.949219 196.296875 C 407.488281 196.886719 405.96875 196.042969 404.871094 192.746094 C 403.519531 188.441406 403.269531 183.964844 402.507812 179.488281 C 402.421875 178.894531 402.675781 178.558594 403.097656 178.21875 C 404.195312 176.953125 405.632812 176.109375 407.066406 175.347656 C 412.808594 172.5625 418.042969 168.84375 423.78125 165.972656 C 425.640625 165.042969 427.496094 164.199219 429.4375 163.4375 C 430.875 162.847656 431.378906 163.523438 431.378906 164.789062 C 431.378906 166.140625 431.378906 167.492188 431.378906 169.183594 C 431.632812 172.984375 431.042969 177.039062 430.453125 181.007812 Z M 381.742188 156.175781 C 381.742188 156.933594 381.742188 157.863281 382.839844 157.863281 C 383.9375 157.863281 384.019531 156.933594 384.019531 156.089844 C 384.019531 155.414062 384.019531 154.652344 384.273438 153.976562 C 384.863281 152.457031 385.371094 152.375 386.636719 153.300781 C 387.226562 153.726562 387.820312 154.148438 388.410156 154.484375 C 390.941406 155.921875 392.714844 155.414062 393.980469 152.710938 C 394.488281 151.613281 394.996094 150.429688 395.753906 149.417969 C 397.441406 147.136719 397.613281 147.136719 399.808594 148.824219 C 400.144531 149.078125 400.480469 149.332031 400.902344 149.585938 C 403.269531 151.023438 405.210938 150.515625 406.644531 148.234375 C 407.234375 147.304688 407.65625 146.292969 408.25 145.363281 C 409.515625 143.335938 410.105469 143.25 412.132812 144.433594 C 412.636719 144.6875 413.0625 145.023438 413.566406 145.195312 C 416.523438 146.546875 418.378906 145.871094 419.730469 142.996094 C 421.332031 139.703125 421.332031 139.703125 424.710938 140.886719 C 427.328125 141.816406 429.269531 141.222656 430.453125 139.027344 C 430.875 138.269531 431.210938 137.339844 431.464844 136.410156 C 432.5625 133.03125 432.816406 132.863281 436.023438 133.960938 C 437.542969 134.46875 438.976562 134.71875 440.328125 133.621094 C 440.835938 133.199219 441.089844 132.695312 440.75 132.019531 C 440.414062 131.425781 439.820312 131.425781 439.316406 131.679688 C 438.132812 132.269531 437.121094 131.933594 436.023438 131.511719 C 432.984375 130.242188 431.125 131.003906 429.859375 134.042969 C 429.4375 135.144531 429.183594 136.242188 428.761719 137.253906 C 428.085938 138.859375 427.242188 139.28125 425.640625 138.773438 C 425.046875 138.605469 424.542969 138.351562 423.949219 138.097656 C 421.332031 136.917969 419.898438 137.339844 418.546875 139.789062 C 418.292969 140.296875 418.042969 140.886719 417.789062 141.476562 C 416.859375 143.671875 416.183594 143.925781 414.074219 142.828125 C 413.734375 142.660156 413.3125 142.492188 413.0625 142.238281 C 411.035156 140.296875 409.261719 140.296875 406.730469 143.421875 C 405.886719 144.519531 405.292969 145.699219 404.617188 146.882812 C 403.941406 147.980469 403.097656 148.234375 402 147.476562 C 401.242188 146.882812 400.480469 146.375 399.722656 145.785156 C 398.117188 144.6875 397.019531 144.773438 395.585938 146.039062 C 394.320312 147.136719 393.390625 148.488281 392.632812 149.925781 C 390.859375 153.386719 390.859375 153.386719 387.566406 151.105469 C 385.371094 149.585938 383.511719 150.007812 382.332031 152.457031 C 381.910156 153.386719 381.570312 154.402344 381.65625 155.414062 C 381.742188 155.667969 381.742188 155.921875 381.742188 156.175781 Z M 386.722656 110.5625 C 396.261719 106.425781 405.800781 102.371094 415.339844 98.230469 C 417.367188 97.386719 419.308594 96.457031 421.332031 95.527344 C 421.925781 95.191406 422.429688 94.683594 422.007812 93.925781 C 421.671875 93.25 421.082031 93.25 420.40625 93.503906 C 419.8125 93.753906 419.222656 94.007812 418.546875 94.261719 C 409.597656 98.148438 400.566406 102.03125 391.617188 105.917969 C 389.507812 106.847656 387.480469 107.859375 385.371094 108.789062 C 384.78125 109.042969 384.359375 109.464844 384.527344 110.226562 C 384.609375 110.734375 385.117188 110.984375 385.707031 111.070312 C 385.960938 110.902344 386.300781 110.734375 386.722656 110.5625 Z M 422.429688 108.199219 C 412.300781 112.421875 402.171875 116.644531 392.039062 120.867188 C 391.027344 121.289062 389.421875 121.542969 390.015625 123.066406 C 390.605469 124.5 391.957031 123.488281 392.882812 123.066406 C 398.792969 120.699219 404.703125 118.164062 410.613281 115.714844 C 414.917969 113.941406 419.308594 112.421875 423.445312 110.308594 C 424.035156 109.972656 424.796875 109.804688 424.878906 108.875 C 424.878906 107.945312 423.867188 107.609375 422.429688 108.199219 Z M 424.796875 118.335938 C 417.449219 121.882812 409.9375 125.089844 402.761719 128.890625 C 399.890625 130.414062 397.019531 131.847656 394.402344 133.792969 C 393.8125 134.214844 393.304688 134.804688 393.8125 135.566406 C 394.402344 136.324219 394.996094 135.988281 395.671875 135.566406 C 401.410156 131.933594 407.488281 128.976562 413.652344 126.105469 C 417.535156 124.332031 421.503906 122.472656 425.386719 120.53125 C 426.0625 120.191406 426.652344 119.9375 426.820312 119.09375 C 426.820312 118.082031 425.976562 117.828125 424.796875 118.335938 Z M 369.160156 115.378906 C 361.5625 119.347656 353.882812 123.148438 346.199219 126.867188 C 344.59375 127.625 342.992188 128.46875 341.304688 129.230469 C 340.710938 129.484375 340.289062 129.992188 340.542969 130.667969 C 340.882812 131.425781 341.386719 131.59375 342.148438 131.257812 C 342.570312 131.089844 343.074219 130.917969 343.496094 130.667969 C 347.210938 128.890625 351.011719 127.117188 354.726562 125.261719 C 359.875 122.640625 365.023438 120.023438 370.175781 117.40625 C 370.765625 117.066406 371.527344 116.8125 371.527344 116.054688 C 371.527344 114.871094 370.597656 114.617188 369.160156 115.378906 Z M 357.679688 140.800781 C 358.609375 140.210938 359.539062 139.621094 360.464844 139.027344 C 365.785156 135.820312 371.695312 133.621094 376.929688 130.160156 C 377.6875 129.652344 378.617188 129.230469 377.941406 128.132812 C 377.351562 127.203125 376.507812 127.710938 375.746094 128.132812 C 372.792969 129.90625 369.835938 131.511719 366.796875 132.945312 C 363.675781 134.296875 360.804688 136.070312 357.847656 137.761719 C 357.089844 138.183594 356.414062 138.773438 355.738281 139.367188 C 355.316406 139.703125 355.234375 140.210938 355.484375 140.71875 C 355.65625 141.054688 355.992188 141.308594 356.414062 141.308594 C 357.003906 141.308594 357.34375 141.054688 357.679688 140.800781 Z M 438.726562 116.476562 C 443.367188 114.449219 448.011719 112.335938 452.570312 110.308594 C 453.328125 109.972656 453.835938 109.464844 453.414062 108.621094 C 452.992188 107.777344 452.230469 108.03125 451.554688 108.285156 C 447.25 110.226562 442.859375 112.085938 438.554688 114.027344 C 438.132812 114.195312 437.628906 114.449219 437.289062 114.785156 C 436.867188 115.125 436.699219 115.632812 436.953125 116.136719 C 437.203125 116.5625 437.542969 116.730469 438.132812 116.730469 C 438.386719 116.5625 438.554688 116.5625 438.726562 116.476562 Z M 367.136719 150.601562 C 371.1875 147.8125 375.578125 145.53125 379.96875 143.503906 C 380.726562 143.167969 381.320312 142.660156 380.894531 141.730469 C 380.472656 140.886719 379.714844 141.140625 379.039062 141.476562 C 374.902344 143.335938 370.933594 145.449219 367.136719 147.898438 C 366.628906 148.234375 366.121094 148.65625 365.617188 149.164062 C 365.277344 149.5 365.277344 149.925781 365.449219 150.347656 C 365.617188 150.769531 365.953125 150.851562 366.460938 150.9375 C 366.714844 150.769531 366.96875 150.683594 367.136719 150.601562 Z M 439.570312 104.566406 C 442.523438 103.554688 445.5625 102.539062 448.515625 101.441406 C 449.277344 101.1875 449.953125 100.679688 449.613281 99.753906 C 449.277344 98.90625 448.515625 99.078125 447.757812 99.328125 C 444.550781 100.429688 441.339844 101.527344 438.132812 102.625 C 437.289062 102.878906 436.53125 103.214844 435.855469 103.808594 C 435.433594 104.144531 435.347656 104.652344 435.515625 105.15625 C 435.769531 105.582031 436.191406 105.75 436.867188 105.664062 C 437.628906 105.328125 438.640625 104.90625 439.570312 104.566406 Z M 437.203125 88.011719 C 435.855469 88.519531 434.589844 89.277344 433.320312 89.953125 C 432.898438 90.207031 432.730469 90.714844 432.984375 91.222656 C 433.238281 91.726562 433.742188 91.980469 434.164062 91.726562 C 435.515625 91.136719 436.867188 90.628906 438.050781 89.785156 C 438.300781 89.617188 438.386719 89.277344 438.554688 89.027344 C 438.472656 88.265625 437.964844 87.757812 437.203125 88.011719 Z M 437.203125 88.011719 " fill-opacity="1" fill-rule="nonzero"/><g clip-path="url(#c3201c59ff)"><path fill="#06327d" d="M 456.367188 57.4375 C 455.609375 63.855469 453.921875 69.9375 450.289062 75.34375 C 449.613281 76.355469 448.769531 76.945312 447.503906 76.355469 C 446.660156 79.058594 445.5625 81.675781 444.296875 84.210938 C 444.210938 84.378906 444.128906 84.464844 444.042969 84.632812 C 441.679688 88.941406 439.570312 89.53125 435.515625 86.828125 C 435.09375 86.574219 434.757812 86.238281 434.25 85.984375 C 431.800781 89.027344 428.679688 90.96875 424.878906 91.898438 C 425.640625 95.277344 426.230469 98.570312 426.652344 101.949219 C 427.496094 109.128906 428.933594 116.222656 429.183594 123.402344 C 429.183594 123.738281 429.269531 124.078125 429.355469 124.332031 C 429.777344 126.867188 429.269531 127.878906 427.074219 129.0625 C 421.417969 132.101562 415.339844 134.296875 409.515625 137.085938 C 406.308594 138.605469 403.097656 140.296875 399.722656 141.5625 C 398.539062 141.984375 397.359375 142.324219 396.007812 142.324219 C 395.246094 142.324219 394.65625 142.152344 394.488281 141.394531 C 394.320312 140.632812 394.824219 140.125 395.5 139.957031 C 404.871094 137.253906 413.230469 132.019531 422.261719 128.554688 C 423.699219 127.964844 425.386719 127.371094 426.484375 126.359375 C 427.75 125.175781 426.652344 123.488281 426.566406 121.964844 C 426.398438 117.066406 425.46875 112.253906 424.878906 107.4375 C 424.203125 102.371094 423.527344 97.386719 422.429688 92.234375 C 420.152344 92.65625 417.957031 92.402344 415.679688 93.585938 C 411.203125 96.035156 406.558594 98.0625 401.242188 97.808594 C 397.273438 97.640625 393.726562 96.289062 390.859375 93.585938 C 389.421875 92.234375 387.902344 91.898438 386.128906 92.234375 C 382.164062 92.828125 379.207031 90.292969 379.207031 86.238281 C 379.207031 84.71875 379.292969 83.113281 379.628906 81.675781 C 380.050781 79.820312 379.546875 78.550781 378.28125 77.117188 C 374.226562 72.46875 371.527344 67.148438 371.527344 60.8125 C 371.527344 58.535156 371.949219 56.253906 372.539062 54.058594 C 372.875 52.789062 373.046875 51.859375 372.117188 50.59375 C 370.765625 48.652344 370.257812 46.285156 370.175781 43.921875 C 369.753906 29.5625 375.15625 18.246094 387.398438 10.304688 C 394.910156 5.40625 403.183594 2.789062 411.964844 1.4375 C 416.605469 0.675781 421.25 0.167969 425.808594 1.351562 C 435.9375 4.054688 444.886719 8.699219 450.796875 17.820312 C 454.257812 23.058594 457.636719 28.296875 459.492188 34.460938 C 460.925781 39.359375 460.503906 44.257812 460.25 49.160156 C 460.167969 51.183594 460 53.210938 459.492188 55.15625 C 458.984375 57.351562 458.648438 57.6875 456.367188 57.4375 Z M 391.195312 90.714844 C 394.574219 93.925781 398.625 95.699219 403.183594 95.105469 C 407.65625 94.601562 411.878906 92.996094 415.59375 90.375 C 416.015625 90.125 416.4375 89.871094 416.945312 89.953125 C 418.886719 90.125 420.742188 89.871094 422.683594 89.617188 C 425.808594 89.195312 428.507812 88.097656 430.875 85.816406 C 437.375 79.566406 441.171875 71.792969 444.296875 63.515625 C 445.394531 60.730469 446.324219 57.859375 446.238281 54.816406 C 446.238281 54.226562 446.324219 53.550781 445.476562 53.464844 C 443.03125 53.128906 440.582031 52.621094 438.21875 52.453125 C 435.261719 52.199219 434.925781 52.03125 434.417969 49.074219 C 433.996094 46.203125 433.40625 43.332031 431.886719 40.796875 C 430.453125 38.429688 428.933594 36.152344 426.0625 34.714844 C 426.144531 35.222656 426.230469 35.390625 426.230469 35.644531 C 428.003906 40.457031 427.496094 45.1875 425.808594 49.917969 C 425.132812 51.777344 423.867188 52.875 422.007812 52.960938 C 416.183594 53.296875 410.273438 53.636719 404.449219 53.886719 C 402.59375 53.972656 401.917969 52.789062 402.59375 51.101562 C 402.847656 50.425781 403.351562 49.832031 403.4375 48.988281 C 403.691406 45.019531 402.085938 39.78125 397.78125 36.996094 C 397.949219 40.121094 397.359375 43.160156 397.78125 46.203125 C 397.863281 47.046875 397.695312 47.890625 396.765625 48.3125 C 395.839844 48.734375 395.246094 48.058594 394.65625 47.46875 C 393.136719 45.863281 391.28125 45.695312 389.589844 46.960938 C 386.300781 49.410156 384.949219 53.210938 385.878906 57.265625 C 386.722656 60.898438 389 63.179688 392.546875 64.277344 C 393.898438 64.699219 395.078125 65.207031 394.320312 67.066406 C 394.234375 67.316406 394.320312 67.570312 394.320312 67.910156 C 394.234375 70.613281 395.078125 73.230469 396.09375 75.679688 C 397.105469 78.046875 396.9375 80.324219 395.671875 82.605469 C 394.152344 85.222656 392.714844 87.925781 391.195312 90.714844 Z M 653.996094 312.6875 C 656.953125 304.410156 661.847656 297.566406 667.84375 291.570312 C 670.207031 289.207031 672.992188 287.347656 676.199219 286.25 C 680.589844 284.730469 684.472656 286.164062 687.007812 290.050781 C 688.695312 292.667969 689.199219 295.457031 689.285156 298.496094 C 689.371094 304.832031 688.441406 311.167969 687.597656 317.417969 C 686.414062 326.199219 683.714844 334.480469 680.503906 342.671875 C 679.324219 345.710938 677.636719 348.5 675.777344 351.035156 C 673.078125 354.664062 669.277344 355.003906 665.308594 354.414062 C 660.75 353.820312 656.867188 351.625 652.984375 349.007812 C 652.730469 350.527344 652.5625 351.960938 652.226562 353.3125 C 651.378906 357.285156 649.609375 360.914062 647.582031 364.464844 C 644.964844 368.941406 642.261719 373.417969 638.042969 376.625 C 634.328125 379.582031 630.105469 381.523438 625.292969 381.523438 C 619.722656 381.523438 614.574219 376.371094 613.730469 370.796875 C 612.882812 364.886719 613.980469 359.140625 614.828125 353.398438 C 615.921875 345.882812 617.273438 338.449219 620.058594 331.269531 C 622.425781 325.1875 625.042969 319.105469 629.261719 314.039062 C 631.878906 310.914062 634.664062 308.125 638.546875 306.4375 C 643.78125 304.070312 649.269531 306.265625 652.308594 310.40625 C 652.898438 310.996094 653.40625 311.757812 653.996094 312.6875 Z M 649.355469 327.804688 C 649.269531 325.949219 649.355469 324.175781 648.847656 322.398438 C 647.835938 318.9375 646.316406 315.726562 643.023438 313.785156 C 641.082031 312.6875 638.125 313.109375 636.945312 314.714844 C 632.976562 320.035156 630.023438 325.949219 627.742188 332.199219 C 625.464844 338.53125 624.28125 345.121094 622.761719 351.625 C 621.578125 356.609375 620.652344 361.675781 621.15625 366.828125 C 621.664062 371.980469 624.871094 374.175781 629.9375 372.742188 C 633.398438 371.726562 635.679688 369.445312 637.449219 366.492188 C 644.375 354.582031 648.257812 341.574219 649.355469 327.804688 Z M 684.640625 302.214844 C 684.640625 298.328125 684.136719 295.625 683.207031 293.007812 C 682.617188 291.234375 681.351562 290.558594 679.492188 290.894531 C 677.71875 291.234375 676.117188 292.078125 674.597656 293.007812 C 667.925781 297.230469 662.945312 302.972656 659.0625 309.816406 C 658.21875 311.25 657.375 312.6875 657.542969 314.375 C 657.882812 317.332031 658.386719 320.203125 658.894531 323.074219 C 659.652344 327.46875 660.496094 331.859375 660.074219 336.421875 C 659.824219 338.785156 659.570312 341.234375 659.316406 343.601562 C 659.230469 344.53125 659.316406 345.457031 660.074219 346.132812 C 662.863281 348.667969 668.265625 348.585938 670.882812 345.882812 C 673.414062 343.179688 675.273438 339.96875 676.621094 336.589844 C 681.179688 325.273438 683.882812 313.445312 684.640625 302.214844 Z M 592.707031 314.292969 C 595.410156 317.164062 599.460938 317.417969 602.332031 315.050781 C 603.851562 313.785156 603.851562 312.769531 602.246094 311.671875 C 600.726562 310.660156 599.125 309.730469 597.519531 308.71875 C 597.097656 308.464844 596.507812 308.292969 596.507812 307.617188 C 596.421875 306.605469 596.253906 305.59375 596.167969 304.492188 C 595.492188 292.5 605.371094 283.882812 613.8125 281.605469 C 614.402344 281.433594 614.828125 281.519531 615.25 281.941406 C 618.117188 284.390625 620.988281 286.839844 623.945312 289.289062 C 624.535156 289.796875 625.042969 290.386719 626.054688 290.386719 C 626.898438 287.683594 627.234375 284.984375 626.5625 282.195312 C 625.714844 278.308594 623.269531 275.015625 618.457031 275.183594 C 618.035156 275.183594 617.613281 275.101562 617.191406 275.015625 C 609.929688 273.578125 604.019531 275.945312 599.292969 281.433594 C 596.84375 284.222656 594.988281 287.515625 593.382812 290.894531 C 591.273438 295.457031 589.414062 300.101562 589.164062 305.253906 C 588.742188 304.917969 588.488281 304.664062 588.148438 304.492188 C 579.285156 299.511719 571.011719 293.511719 562.570312 287.9375 C 552.777344 281.433594 543.40625 274.425781 533.699219 268.003906 C 524.410156 261.839844 514.871094 256.097656 505.417969 250.183594 C 492.5 241.988281 479.585938 233.796875 466.414062 225.941406 C 461.179688 222.816406 455.945312 219.859375 450.628906 216.734375 C 452.230469 211.835938 453.160156 206.851562 454.089844 201.785156 C 454.257812 200.6875 454.425781 199.503906 453.074219 199.25 C 451.726562 198.996094 451.808594 200.265625 451.640625 201.195312 C 450.628906 205.753906 449.785156 210.402344 448.347656 214.878906 C 447.335938 218.171875 447.25 218.085938 450.289062 219.777344 C 457.804688 223.832031 465.148438 228.222656 472.324219 232.699219 C 484.3125 240.132812 496.300781 247.566406 508.117188 255.167969 C 518.417969 261.753906 528.96875 267.835938 538.933594 274.847656 C 549.0625 281.941406 559.023438 289.207031 569.578125 295.792969 C 573.375 298.160156 577.089844 300.691406 581.3125 303.480469 C 574.8125 302.972656 570.589844 306.183594 566.789062 310.238281 C 562.90625 314.375 561.304688 319.613281 559.867188 324.933594 C 557.503906 333.972656 555.730469 343.09375 556.746094 352.46875 C 556.914062 354.328125 557 356.269531 557.671875 358.128906 C 558.601562 360.664062 560.207031 361.507812 562.824219 360.914062 C 564.257812 360.578125 565.523438 359.988281 566.707031 359.226562 C 570.421875 356.777344 572.785156 353.144531 575.402344 349.683594 C 576.332031 348.5 577.34375 347.316406 577.933594 345.882812 C 575.484375 345.035156 573.039062 344.191406 570.589844 343.433594 C 568.816406 342.925781 568.140625 341.742188 567.886719 339.96875 C 567.128906 335.40625 567.550781 330.929688 568.902344 326.539062 C 570.589844 321.21875 572.953125 316.320312 576.332031 311.925781 C 577.679688 310.152344 578.949219 310.152344 580.804688 311.335938 C 584.011719 313.363281 587.21875 315.472656 590.765625 317.164062 C 590.933594 315.8125 591.1875 314.628906 591.355469 313.109375 C 591.949219 313.445312 592.285156 313.871094 592.707031 314.292969 Z M 327.035156 246.382812 C 328.894531 245.875 329.820312 244.441406 329.652344 242.582031 C 329.398438 240.046875 328.132812 238.359375 325.855469 237.261719 C 323.742188 236.332031 321.546875 235.824219 319.355469 234.980469 C 317.242188 234.136719 316.738281 233.375 316.90625 231.09375 C 317.160156 227.714844 318.679688 224.84375 320.28125 221.972656 C 326.191406 211.328125 333.28125 201.363281 340.035156 191.226562 C 348.058594 179.316406 356.5 167.660156 363.421875 155.078125 C 363.589844 154.738281 363.757812 154.402344 364.265625 154.230469 C 365.699219 153.808594 366.039062 153.132812 365.195312 151.867188 C 364.097656 150.007812 362.832031 148.234375 361.3125 146.628906 C 356.753906 142.070312 351.601562 138.351562 346.03125 135.058594 C 344.003906 133.792969 341.808594 132.863281 339.445312 132.1875 C 338.6875 131.933594 338.011719 132.101562 337.671875 132.863281 C 337.335938 133.621094 337.925781 134.128906 338.515625 134.46875 C 338.769531 134.636719 339.109375 134.804688 339.363281 134.890625 C 344.171875 136.746094 348.308594 139.703125 352.363281 142.746094 C 355.65625 145.195312 358.777344 147.898438 361.3125 151.191406 C 361.734375 151.78125 362.238281 152.289062 361.648438 153.21875 C 359.875 156.175781 358.273438 159.214844 356.414062 162.085938 C 350.335938 171.378906 344.171875 180.585938 337.925781 189.792969 C 332.015625 198.574219 325.855469 207.277344 320.535156 216.398438 C 318.257812 220.28125 315.890625 224 314.710938 228.390625 C 313.613281 232.699219 314.203125 235.0625 317.074219 236.753906 C 318.003906 237.34375 319.015625 237.683594 320.113281 238.019531 C 322.054688 238.695312 324.082031 239.117188 325.855469 240.386719 C 326.78125 241.0625 327.289062 242.074219 327.035156 243.089844 C 326.78125 244.269531 325.601562 244.101562 324.671875 244.101562 C 321.464844 244.1875 318.171875 243.933594 315.132812 243.003906 C 310.828125 241.738281 307.367188 242.414062 304.410156 245.960938 C 301.964844 248.917969 299.429688 251.789062 295.714844 253.308594 C 295.546875 253.394531 295.378906 253.5625 295.210938 253.644531 C 294.617188 254.238281 294.449219 254.914062 294.957031 255.589844 C 295.460938 256.265625 296.054688 256.097656 296.730469 255.757812 C 299.683594 254.238281 302.300781 252.378906 304.496094 249.761719 C 305.59375 248.410156 306.945312 247.226562 308.210938 246.042969 C 309.140625 245.117188 310.320312 244.777344 311.671875 245.03125 C 315.640625 245.792969 319.605469 246.71875 323.492188 246.71875 C 324.757812 246.890625 325.9375 246.71875 327.035156 246.382812 Z M 442.101562 170.871094 C 442.101562 176.445312 442.015625 180.753906 440.414062 184.890625 C 438.640625 189.453125 435.347656 192.746094 431.550781 195.621094 C 424.203125 201.109375 416.269531 205.5 407.574219 208.542969 C 405.800781 209.132812 403.941406 209.472656 402.085938 209.132812 C 399.214844 208.625 397.359375 206.769531 396.34375 204.148438 C 394.996094 200.519531 394.402344 196.800781 394.066406 193 C 393.476562 186.917969 393.136719 180.921875 392.546875 174.839844 C 392.460938 173.40625 392.800781 172.730469 394.234375 172.222656 C 400.902344 169.605469 407.234375 166.480469 413.566406 163.101562 C 420.238281 159.554688 426.90625 155.921875 433.574219 152.289062 C 433.914062 152.121094 434.25 151.953125 434.589844 151.78125 C 436.867188 150.09375 438.554688 150.601562 439.484375 153.386719 C 439.992188 154.90625 440.414062 156.511719 440.75 158.117188 C 441.59375 162.761719 442.269531 167.410156 442.101562 170.871094 Z M 394.910156 174.503906 C 395.078125 175.433594 395.164062 176.191406 395.246094 176.953125 C 395.839844 182.863281 396.261719 188.863281 396.9375 194.773438 C 397.273438 197.898438 397.78125 201.023438 399.214844 203.980469 C 400.230469 206.007812 402.085938 206.9375 404.195312 206.515625 C 405.546875 206.261719 406.898438 206.007812 408.164062 205.5 C 417.199219 201.785156 425.808594 197.308594 433.152344 190.71875 C 436.109375 188.101562 438.050781 184.722656 438.726562 180.753906 C 439.738281 174.082031 439.484375 167.410156 438.300781 160.820312 C 437.878906 158.371094 437.628906 155.921875 436.53125 153.554688 C 422.683594 160.734375 409.515625 168.84375 394.910156 174.503906 Z M 444.210938 134.382812 C 446.492188 142.914062 447.757812 151.699219 449.277344 160.398438 C 449.867188 163.859375 450.375 167.324219 452.652344 170.195312 C 459.070312 178.21875 465.484375 186.328125 472.660156 193.761719 C 474.179688 195.367188 475.53125 196.972656 475.953125 199.25 C 476.292969 200.773438 477.21875 202.039062 478.570312 202.882812 C 483.636719 205.839844 489.039062 208.035156 494.863281 208.878906 C 495.792969 209.050781 496.722656 208.964844 496.976562 207.867188 C 497.226562 206.601562 496.300781 206.261719 495.285156 206.09375 C 490.050781 205.332031 485.15625 203.472656 480.597656 200.855469 C 479.5 200.179688 478.65625 199.421875 478.402344 198.152344 C 477.894531 195.535156 476.292969 193.675781 474.519531 191.820312 C 473.421875 190.71875 472.410156 189.621094 471.394531 188.441406 C 465.65625 182.191406 460.421875 175.515625 455.101562 168.84375 C 453.667969 167.070312 452.738281 165.042969 452.402344 162.761719 C 451.386719 156.679688 450.289062 150.601562 449.191406 144.519531 C 448.347656 139.703125 446.660156 135.058594 445.984375 130.160156 C 445.816406 128.890625 445.140625 127.625 445.898438 126.359375 C 447.84375 123.148438 449.867188 119.9375 451.894531 116.8125 C 453.160156 114.871094 454.511719 112.929688 455.863281 110.984375 C 456.285156 110.308594 456.453125 109.632812 455.777344 109.128906 C 455.019531 108.535156 454.425781 109.042969 453.921875 109.550781 C 453.75 109.71875 453.667969 109.886719 453.582031 110.058594 C 449.785156 114.871094 446.660156 120.109375 443.535156 125.34375 C 443.199219 125.9375 442.945312 126.527344 442.945312 127.542969 C 443.367188 129.652344 443.621094 132.101562 444.210938 134.382812 Z M 378.871094 149.25 C 380.726562 148.742188 382.585938 148.234375 384.1875 147.136719 C 386.046875 145.871094 386.214844 145.53125 385.457031 143.503906 C 383.261719 137.675781 381.488281 131.765625 379.546875 125.851562 C 377.351562 119.433594 375.070312 113.097656 371.105469 107.523438 C 369.5 105.242188 367.472656 103.382812 365.53125 101.527344 C 365.023438 101.019531 364.351562 100.597656 363.675781 101.1875 C 362.832031 101.863281 363.335938 102.539062 363.84375 103.214844 C 364.265625 103.722656 364.6875 104.230469 365.109375 104.734375 C 369.078125 108.535156 371.695312 113.265625 373.804688 118.335938 C 377.351562 126.695312 379.628906 135.480469 382.839844 143.925781 C 383.175781 144.6875 382.921875 145.109375 382.164062 145.449219 C 380.644531 146.207031 378.953125 146.546875 377.351562 147.050781 C 375.238281 147.726562 374.566406 148.65625 375.070312 150.851562 C 375.410156 152.203125 375.914062 153.554688 376.253906 154.90625 C 378.617188 164.03125 379.460938 173.320312 378.703125 182.695312 C 378.195312 188.863281 375.578125 193.761719 371.019531 197.730469 C 369.667969 198.914062 368.402344 200.265625 367.136719 201.449219 C 366.460938 202.125 366.121094 202.796875 366.882812 203.558594 C 367.640625 204.402344 368.316406 203.898438 368.992188 203.304688 C 371.105469 201.449219 373.046875 199.503906 375.070312 197.476562 C 377.855469 194.605469 379.714844 191.226562 380.558594 187.425781 C 382.5 178.8125 381.570312 170.195312 380.472656 161.664062 C 379.96875 157.609375 378.617188 153.808594 377.605469 149.925781 C 377.941406 149.417969 378.449219 149.417969 378.871094 149.25 Z M 595.242188 359.058594 C 596.421875 359.058594 596.421875 358.042969 596.507812 357.113281 C 596.761719 351.960938 597.605469 346.894531 598.871094 341.996094 C 600.644531 335.070312 603.429688 328.902344 610.351562 325.527344 C 611.027344 325.1875 611.617188 324.597656 611.113281 323.835938 C 610.605469 322.992188 609.84375 323.246094 609.085938 323.582031 C 604.441406 325.949219 600.898438 329.410156 598.871094 334.226562 C 595.832031 341.488281 594.398438 349.089844 593.972656 357.453125 C 593.972656 357.960938 593.972656 359.058594 595.242188 359.058594 Z M 387.820312 53.550781 C 388.070312 51.859375 388.832031 50.339844 390.183594 48.988281 C 390.773438 48.398438 391.449219 48.398438 392.207031 48.484375 C 394.152344 48.734375 395.921875 52.707031 394.910156 54.394531 C 394.488281 55.070312 394.152344 55.832031 393.8125 56.589844 C 393.304688 57.6875 392.96875 58.703125 394.488281 59.378906 C 395.078125 59.632812 395.246094 60.308594 394.910156 60.984375 C 394.574219 61.574219 394.066406 61.574219 393.476562 61.40625 C 390.859375 60.730469 387.734375 56.507812 387.820312 53.550781 Z M 391.617188 50.847656 C 389.761719 53.296875 389.675781 54.734375 391.449219 56.421875 C 392.125 54.648438 394.234375 52.960938 391.617188 50.847656 Z M 429.101562 57.097656 C 428.171875 57.011719 427.917969 57.6875 427.835938 58.449219 C 427.75 59.125 427.582031 59.714844 427.582031 60.390625 C 427.582031 63.601562 428.171875 66.640625 429.101562 69.765625 C 429.691406 71.792969 429.4375 72.046875 427.414062 72.640625 C 426.484375 72.894531 425.46875 72.722656 424.542969 73.316406 C 424.035156 73.738281 423.699219 74.160156 423.867188 74.835938 C 424.035156 75.511719 424.625 75.59375 425.21875 75.511719 C 426.484375 75.257812 427.75 75.171875 428.933594 74.75 C 431.378906 73.992188 432.140625 72.46875 431.550781 69.9375 C 430.621094 66.21875 429.605469 62.503906 430.027344 58.195312 C 430.113281 58.027344 430.027344 57.183594 429.101562 57.097656 Z M 623.773438 367.84375 C 624.195312 369.867188 625.378906 370.796875 627.488281 370.628906 C 630.191406 370.375 632.300781 369.109375 633.988281 366.996094 C 635.171875 365.476562 636.183594 363.703125 637.027344 361.929688 C 642.433594 351.371094 645.808594 340.222656 646.652344 328.398438 C 646.992188 324.175781 646.0625 320.289062 643.191406 317.164062 C 641.164062 314.96875 639.308594 315.222656 637.621094 317.671875 C 635.003906 321.300781 633.230469 325.355469 631.457031 329.328125 C 628.839844 335.238281 627.574219 341.65625 626.140625 347.992188 C 624.957031 353.144531 623.523438 358.296875 623.4375 363.617188 C 623.4375 365.054688 623.4375 366.492188 623.773438 367.84375 Z M 676.792969 294.441406 C 669.617188 298.664062 664.296875 304.664062 660.496094 312.011719 C 660.074219 312.769531 659.652344 313.53125 659.824219 314.460938 C 660.246094 317.164062 660.667969 319.867188 661.171875 322.570312 C 662.101562 327.636719 663.113281 332.703125 662.355469 337.855469 C 662.101562 339.714844 661.847656 341.574219 661.679688 343.347656 C 661.59375 343.855469 661.511719 344.445312 662.1875 344.699219 C 665.226562 345.964844 667.671875 346.21875 669.785156 343.433594 C 671.808594 340.730469 673.5 337.773438 674.765625 334.648438 C 678.480469 325.101562 680.84375 315.136719 681.941406 305 C 682.363281 301.03125 682.277344 297.0625 680.503906 293.261719 C 679.15625 293.175781 677.972656 293.765625 676.792969 294.441406 Z M 676.792969 294.441406 " fill-opacity="1" fill-rule="nonzero"/></g><g clip-path="url(#c4aba37539)"><g clip-path="url(#24c873b639)"><path fill="#ffd034" d="M 580.414062 69.828125 L 625.746094 69.828125 L 625.746094 115.15625 L 580.414062 115.15625 Z M 580.414062 69.828125 " fill-opacity="1" fill-rule="nonzero"/></g></g></svg>